<svg width="47" height="47" viewBox="0 0 47 47" fill="none" xmlns="http://www.w3.org/2000/svg">
<circle cx="23.5" cy="23.5" r="23.5" fill="#22E790"/>
<g filter="url(#filter0_b_111_193)">
<path d="M31.8102 8.22715C31.8102 8.22715 32.5902 8.60319 33.2006 8.72972C33.2493 8.73939 33.2998 8.73627 33.3467 8.72069C33.3936 8.70511 33.435 8.67768 33.4666 8.64136C33.6026 8.48869 33.7924 8.22715 33.5989 8.13314C33.5715 8.11972 33.5426 8.10487 33.512 8.08916C33.2302 7.94436 32.8073 7.72711 32.1718 7.89352C31.4672 8.07801 31.7011 8.19464 31.8102 8.22715Z" fill="#181928"/>
<path d="M27.5834 8.73539C27.5834 8.73539 27.6439 8.55656 27.7941 8.55656C27.8376 8.55656 27.9032 8.55002 27.9773 8.54262C28.1586 8.52454 28.3908 8.50136 28.4762 8.55656C28.5965 8.63431 28.5435 8.87464 28.4015 8.87535C28.2595 8.87605 27.5229 8.83859 27.5834 8.73539Z" fill="#181928"/>
<path d="M9.40914 18.0388C9.33518 18.5053 9.75433 18.4827 9.75433 18.4827C9.83382 18.4931 9.91544 18.4033 10.0146 18.2942C10.0711 18.232 10.1333 18.1636 10.2041 18.1039C10.355 17.9764 10.3949 17.8494 10.4717 17.6053C10.4942 17.5339 10.5198 17.4525 10.5523 17.3581C10.6957 16.9411 11.2598 16.8344 11.3517 16.8344C11.4436 16.8344 11.3099 17.1892 10.9311 17.5999C10.8245 17.7154 10.7061 17.8251 10.587 17.9354C10.283 18.217 9.97485 18.5024 9.84922 18.8991C9.67438 19.4511 9.97175 19.7126 10.1974 19.6448C10.3019 19.6133 10.353 19.5016 10.4229 19.3489C10.5038 19.1719 10.6099 18.94 10.8534 18.7146C11.0928 18.4929 11.22 18.2839 11.3334 18.0974C11.4349 17.9307 11.5253 17.782 11.6753 17.6585C11.9217 17.439 12.1468 17.1989 12.3477 16.9411C13.2015 15.2222 15.9374 13.0627 16.7367 12.4318C16.839 12.3511 16.9096 12.2954 16.9404 12.2689C17.0416 12.1818 17.1838 12.0982 17.3224 12.0166C17.5564 11.879 17.7802 11.7473 17.7802 11.615C17.7802 11.4044 17.6577 11.2878 17.459 11.3111C17.2602 11.3344 15.6807 12.3388 14.4958 13.25C13.3108 14.1611 12.1497 15.8921 11.9607 16.2654C11.7716 16.6386 11.7051 16.3848 11.7051 16.0314C11.7051 15.8135 11.771 15.6859 11.8389 15.5544C11.8811 15.4727 11.9241 15.3895 11.9524 15.2821C12.0264 15.0022 11.5819 15.2129 11.4586 15.3761C11.4209 15.426 11.3487 15.4846 11.2665 15.5512C11.0797 15.7028 10.8414 15.896 10.8414 16.1233C10.8414 16.4505 10.6688 16.6145 10.3476 16.8245C10.0263 17.0344 9.48311 17.5723 9.40914 18.0388Z" fill="#181928"/>
<path d="M18.0536 11.0488C18.015 11.0671 17.9814 11.0936 17.9555 11.1262C17.9295 11.1588 17.912 11.1967 17.9042 11.2369C17.899 11.262 17.8992 11.2878 17.9048 11.3128C17.9105 11.3379 17.9214 11.3616 17.937 11.3825C18.0327 11.5076 18.283 11.41 18.4444 11.2708C18.6057 11.1315 19.6069 10.554 19.6069 10.554C19.6069 10.554 18.5034 10.8304 18.0536 11.0488Z" fill="#181928"/>
<path d="M10.4396 20.3432C10.6705 20.5708 10.8199 20.3432 10.8199 20.3432C11.1202 20.134 11.4944 19.561 11.7322 19.1968C11.8087 19.0798 11.871 18.9843 11.9123 18.9295C12.0819 18.704 13.0592 17.4211 13.3692 17.0606C13.4395 16.9789 13.4803 16.9047 13.5293 16.8153C13.6966 16.5106 13.9609 16.0292 15.8259 14.4693C18.2377 12.452 20.9498 10.3569 24.2814 10.2502C27.6129 10.1434 31.454 12.4145 31.454 12.4145C31.5083 12.3934 31.5576 12.3621 31.5988 12.3225C31.64 12.283 31.6724 12.2359 31.694 12.1843C31.7155 12.1326 31.7258 12.0773 31.7243 12.0218C31.7227 11.9662 31.7093 11.9116 31.6849 11.8611C27.9335 9.6451 24.8664 9.42103 23.3721 9.69741C21.8778 9.97378 20.4649 10.7054 19.4391 11.2574C18.4492 11.7901 16.5361 13.239 15.3781 14.116L15.255 14.2092C14.1141 15.0729 12.9224 16.4668 12.6303 16.9206C12.3382 17.3744 11.2525 18.9995 10.8834 19.3232C10.5144 19.6469 10.2088 20.1156 10.4396 20.3432Z" fill="#181928"/>
<path d="M32.6419 10.0133C28.5311 8.51058 25.8884 8.87107 25.1211 9.03364C25.0975 9.03877 25.0764 9.05095 25.0608 9.06837C25.0451 9.08579 25.0359 9.10753 25.0344 9.13033C25.0328 9.15313 25.0392 9.17579 25.0524 9.19492C25.0656 9.21405 25.0849 9.22864 25.1076 9.23651C25.3245 9.30006 25.5484 9.34013 25.7748 9.35596C26.125 9.38946 26.4621 9.43673 26.7785 9.4811C27.2634 9.54911 27.6999 9.61033 28.0611 9.60477C28.6581 9.59558 30.1389 9.75745 31.0333 10.0741C31.9276 10.3908 32.3034 10.5272 32.3034 10.5272C32.3034 10.5272 32.4932 10.5442 32.6382 10.3392C32.7831 10.1342 32.6419 10.0133 32.6419 10.0133Z" fill="#181928"/>
<path d="M31.8558 11.432C32.3706 11.398 32.2167 10.8764 32.2167 10.8764C32.2167 10.8764 30.2659 10.1434 29.2266 9.8769C28.1873 9.61042 27.6337 10.0812 28.4399 10.1759C28.8433 10.2233 29.5696 10.5463 30.259 10.853C30.9472 11.1591 31.5987 11.4489 31.8558 11.432Z" fill="#181928"/>
<path d="M29.4006 8.41449C29.3784 8.42228 29.3591 8.43619 29.3453 8.45443C29.3315 8.47267 29.3238 8.4944 29.3231 8.51683C29.3225 8.53926 29.3289 8.56136 29.3417 8.58028C29.3544 8.59921 29.3729 8.61408 29.3946 8.62301C29.6293 8.71843 30.0066 8.85273 30.3107 8.87535C30.7896 8.91069 32.0874 9.29945 32.706 9.6041C33.102 9.79637 33.3037 9.11638 33.0482 9.03015C32.9109 8.98433 32.7124 8.91399 32.4913 8.83566C31.9654 8.64935 31.312 8.41783 31.0511 8.36359C30.7388 8.29856 29.8908 8.25191 29.4006 8.41449Z" fill="#181928"/>
<path d="M30.509 12.9744C29.3969 12.3614 26.6797 10.8635 22.2843 11.4327C21.8993 11.4846 21.5702 11.7342 21.3223 11.9222C21.2123 12.0056 21.1183 12.0769 21.0425 12.1134C20.5446 12.3462 20.0647 12.6122 19.6065 12.9093C18.6811 13.5317 17.8233 14.2396 17.046 15.0227C16.266 15.8243 15.3014 17.5214 15.0706 17.9392C14.8397 18.3569 13.9782 19.2906 13.7257 19.5296C13.4732 19.7685 12.8866 20.9998 12.4854 21.8763C12.0842 22.7528 11.5791 22.6312 11.6636 21.9752C11.748 21.3193 13.1556 19.4681 13.4918 19.0927C13.8281 18.7174 15.5966 16.2887 15.6802 16.0858C15.7639 15.883 15.5114 15.8314 15.2805 16.0858C15.1766 16.2003 14.8939 16.5953 14.583 17.0295C14.2032 17.5601 13.7813 18.1493 13.5927 18.3569C13.2498 18.7344 11.7301 21.0945 11.7301 21.0945C11.7301 21.0945 11.5208 21.6232 11.1996 21.4515C10.8783 21.2797 10.9769 20.8846 11.3535 20.4414C11.5148 20.2515 12.1375 19.3985 12.8132 18.4729C13.7144 17.2383 14.71 15.8745 14.83 15.784C14.9036 15.7284 15.0395 15.6741 15.2064 15.6074C15.5152 15.4838 15.9303 15.3178 16.2548 15.0227C16.4318 14.8617 16.6107 14.6617 16.7958 14.4547C17.1333 14.0772 17.4918 13.6763 17.8985 13.4458C18.0317 13.3703 18.2117 13.2227 18.4425 13.0335C19.3035 12.3276 20.8721 11.0415 23.3602 10.7506C26.5154 10.3816 29.909 11.6885 31.3054 12.7849C31.3054 12.7849 31.4026 13.1545 31.0536 13.221C30.9812 13.2348 30.8001 13.1349 30.509 12.9744Z" fill="#181928"/>
<path d="M16.2125 16.7149C16.2125 16.7149 17.5417 14.8064 18.977 13.8762C19.5267 13.5199 19.9842 13.2066 20.3646 12.946C20.9773 12.5263 21.3901 12.2435 21.6667 12.1388C21.6926 12.129 21.722 12.1174 21.7552 12.1042L21.7558 12.104C22.2983 11.8889 23.8388 11.2782 27.1015 11.9833C30.5653 12.7319 30.9829 13.8056 30.8193 14.0176C30.6769 14.2021 30.2528 13.9799 29.6212 13.6489C29.527 13.5995 29.4282 13.5478 29.325 13.4945C28.53 13.0846 27.0395 12.4633 25.8448 12.4915C24.6501 12.5198 22.2764 13.2966 22.1277 13.438C21.979 13.5794 21.9633 13.1842 22.366 13.0994C22.5797 13.0544 22.756 12.9457 22.9122 12.8494C23.0504 12.7641 23.1729 12.6886 23.2918 12.6753C23.545 12.647 23.9343 12.5622 23.9343 12.365C23.9343 12.1678 23.0833 12.1954 22.65 12.365C22.311 12.4977 21.2142 13.0619 20.6027 13.3766C20.4323 13.4642 20.2996 13.5325 20.2314 13.5666C20.1641 13.6004 20.0925 13.6327 20.021 13.665C19.76 13.783 19.4988 13.901 19.4402 14.089C19.3655 14.3286 18.8574 14.8998 18.6041 15.0242C18.3509 15.1486 17.0657 16.1092 16.932 16.3354C16.7983 16.5615 16.616 16.7383 16.2125 16.7149Z" fill="#181928"/>
<path d="M19.7421 14.9202C19.0249 15.432 18.856 15.1952 18.856 15.1952C18.8706 15.0382 19.5709 14.6219 20.0138 14.3586C20.1852 14.2567 20.3182 14.1777 20.3578 14.1455C20.4998 14.0303 20.6761 14.2933 20.6148 14.2933C20.5828 14.2933 20.5417 14.3248 20.4073 14.4281C20.2846 14.5223 20.0843 14.6761 19.7421 14.9202Z" fill="#181928"/>
<path d="M20.8486 14.774C20.8486 14.774 20.6484 14.7181 21.0399 14.4566C21.4314 14.195 24.021 12.717 25.8889 12.8103C27.7568 12.9036 29.9235 13.9512 30.2971 14.2601C30.6707 14.569 30.4062 15.1853 30.2971 15.1479C30.2804 15.1421 30.2115 15.0981 30.1012 15.0275C29.4922 14.6379 27.6187 13.4393 26.255 13.3998C24.6442 13.3532 23.0229 13.9328 22.3407 14.335L22.2482 14.3896C21.6364 14.7513 21.4021 14.8899 20.8486 14.774Z" fill="#181928"/>
<path d="M22.8938 14.6511C22.9076 14.6647 22.9253 14.6743 22.9447 14.6785C23.6123 14.8303 24.0453 14.7137 24.5367 14.5815C25.0111 14.4538 25.5399 14.3115 26.3869 14.3816C27.7177 14.4912 28.673 15.3893 29.2184 15.902C29.4149 16.0867 29.5582 16.2214 29.6467 16.2512C29.9807 16.3636 30.0696 15.8017 30.0203 15.5592C29.971 15.3168 29.0221 14.2692 26.6999 13.802C24.8223 13.4238 23.39 14.1943 22.9104 14.5039C22.8939 14.5145 22.881 14.5294 22.8733 14.5468C22.8656 14.5642 22.8634 14.5833 22.8671 14.6018C22.8707 14.6204 22.88 14.6375 22.8938 14.6511Z" fill="#181928"/>
<path d="M25.3256 15.0736L25.1231 15.0107C25.1175 15.0089 25.1126 15.0055 25.1091 15.0009C25.1057 14.9964 25.1038 14.9909 25.1038 14.9853C25.1038 14.9797 25.1057 14.9742 25.1091 14.9696C25.1126 14.9651 25.1175 14.9616 25.1231 14.9598C25.422 14.8891 26.3977 14.7096 27.2809 15.0305C28.0609 15.3133 28.6907 15.8519 28.9672 16.1155C28.9757 16.1241 28.981 16.135 28.9822 16.1467C28.9834 16.1583 28.9805 16.1701 28.9739 16.18C28.9673 16.1899 28.9574 16.1975 28.9458 16.2016C28.9342 16.2057 28.9215 16.206 28.9097 16.2025L25.3256 15.0736Z" fill="#181928"/>
<path d="M12.4627 23.4108C12.7443 23.6434 12.8512 23.3402 12.8512 23.3402C13.1528 22.8545 13.2472 22.5398 13.3403 22.2293C13.4424 21.8891 13.5429 21.554 13.9129 21.0048C14.6204 19.9544 14.4456 19.2829 14.4359 19.4596C14.4262 19.6363 13.7358 20.4223 13.5416 20.6061C13.3473 20.7899 12.5695 22.3258 12.4627 22.5739L12.4464 22.6115C12.3396 22.857 12.1949 23.1898 12.4627 23.4108Z" fill="#181928"/>
<path d="M13.4638 24.3608C13.4638 24.3608 13.3569 24.5729 13.1724 24.3608C12.9878 24.1488 13.1619 23.654 13.3861 23.1472C13.4907 22.9106 13.6141 22.5381 13.7308 22.1857C13.8641 21.7833 13.9886 21.4072 14.0667 21.2896C14.2132 21.0691 14.2318 21.5653 14.2318 21.7137C14.2318 21.7277 14.2323 21.7475 14.2328 21.7724C14.2381 22.0119 14.2537 22.7244 13.998 23.3324C13.8547 23.6904 13.6758 24.0348 13.4638 24.3608Z" fill="#181928"/>
<path d="M13.8913 25.2897C14.1446 25.6848 14.3583 25.354 14.3583 25.354C14.504 25.1886 14.5526 24.8246 14.5526 24.7122C14.5526 24.6554 14.5154 24.5549 14.4724 24.4385C14.4302 24.3242 14.3824 24.1947 14.3583 24.076C14.3098 23.8364 14.2223 23.6526 14.1641 23.7261C14.133 23.7653 14.0787 23.9187 14.0235 24.0748C13.9752 24.2114 13.9262 24.35 13.8913 24.416C13.8065 24.5475 13.7615 24.6987 13.7615 24.8528C13.7615 25.007 13.8065 25.1581 13.8913 25.2897Z" fill="#181928"/>
<path d="M14.8438 25.7491C14.8438 25.7491 14.7691 25.5215 14.7079 25.4833C14.6466 25.4452 14.4777 25.6664 14.462 25.8318C14.4533 25.9235 14.505 25.9815 14.5571 26.04C14.599 26.0871 14.6412 26.1345 14.6526 26.2001C14.678 26.3471 14.802 26.1633 14.8438 26.0071C14.8683 25.9227 14.8683 25.8336 14.8438 25.7491Z" fill="#181928"/>
<path d="M16.5974 18.393C15.5955 19.4942 15.3893 20.874 15.3893 20.874C15.3893 20.874 15.5604 21.1256 15.6455 20.6796C15.7307 20.2336 16.3643 19.579 16.4674 19.5649L16.4699 19.5646C16.4989 19.5606 16.5182 19.5579 16.5244 19.5652C16.5368 19.5796 16.4994 19.6322 16.3888 19.7878C16.3608 19.8272 16.3281 19.8732 16.2903 19.9268C16.0251 20.3036 15.0979 22.5612 15.068 23.1606C15.0381 23.76 15.2301 23.7741 15.3183 23.7741C15.4064 23.7741 16.306 21.8367 16.3202 21.5716C16.3306 21.3786 16.6527 20.698 16.8847 20.2077C16.9713 20.0247 17.0454 19.8681 17.086 19.7734C17.2193 19.4627 17.15 19.3858 17.1021 19.3327C17.0963 19.3262 17.0908 19.3201 17.086 19.314C17.0669 19.2894 17.0057 19.2913 16.9422 19.2932C16.8596 19.2957 16.7731 19.2984 16.7693 19.2433C16.7658 19.1939 16.9263 19.0192 17.0952 18.8353C17.2598 18.6561 17.4325 18.4681 17.4693 18.3788C17.4995 18.3059 17.6035 18.1625 17.7208 18.0009C17.8944 17.7617 18.097 17.4827 18.1313 17.3334C18.1888 17.0832 18.0566 17.1107 18.0566 17.1107C18.0566 17.1107 17.5993 17.2917 16.5974 18.393Z" fill="#181928"/>
<path d="M17.7802 20.7347C17.7802 20.7347 17.5403 21.2733 17.0398 21.2338C16.6963 21.2066 16.9438 20.6469 17.1716 20.1318C17.2758 19.8963 17.3758 19.67 17.4133 19.5083C17.5329 18.9931 18.4593 17.0832 18.6491 16.9156C18.8389 16.7481 19.3567 16.5622 19.4306 16.7177C19.4728 16.8064 19.3757 16.9218 19.2517 17.0692C19.1582 17.1803 19.0495 17.3095 18.9734 17.4592C18.9343 17.5361 18.8754 17.6454 18.8066 17.773C18.5635 18.2238 18.1981 18.9017 18.1567 19.1733C18.1037 19.5218 17.7802 20.7347 17.7802 20.7347Z" fill="#181928"/>
<path d="M17.3243 21.7505C17.3254 21.7931 17.3172 21.8355 17.3 21.8749C17.4542 21.7219 17.5973 21.5592 17.7281 21.3879C18.0442 20.9991 18.1383 20.5015 18.1436 20.1622C18.1488 19.8229 18.476 19.2348 18.476 19.2348C19.5172 16.9622 20.0679 16.4859 20.2671 16.3137C20.2889 16.2948 20.3065 16.2796 20.32 16.2661C20.4575 16.1289 21.2069 16.025 21.4161 16.0448C21.5571 16.0582 21.4975 16.2025 21.405 16.4266C21.3603 16.535 21.3078 16.662 21.2667 16.8019C21.1404 17.2309 20.9088 17.8572 20.8034 17.978C20.6981 18.0989 20.2625 18.6821 20.2341 18.9471C20.21 19.172 20.0526 19.8886 19.9151 20.5146L19.9149 20.5157C19.8903 20.6273 19.8665 20.7361 19.8441 20.8386C19.6961 21.5165 19.7387 22.4531 19.7806 22.4997C19.8224 22.5464 20.4254 24.0951 20.5598 24.5764C20.6943 25.0578 21.6843 26.8694 21.9794 27.1783C22.2746 27.4872 22.2746 27.6568 21.9794 27.8463C21.6843 28.0357 21.5057 27.9361 21.5057 27.9361C20.5237 26.8979 20.044 25.1727 19.8356 24.4232C19.7578 24.1434 19.7178 23.9995 19.7036 24.0781C19.6513 24.3672 19.9547 25.6635 20.125 26.1916C20.2849 26.6871 20.9553 27.8585 21.0793 28.0751L21.0963 28.105C21.1471 28.1948 20.8482 28.633 20.4747 28.4839C20.1011 28.3347 19.4698 26.6899 19.3539 26.2015C19.2381 25.713 18.8885 23.2511 19.0379 21.7858C19.1235 20.8669 19.3216 19.9606 19.6281 19.085C19.6771 18.9386 19.8511 18.6412 20.0208 18.3513C20.1748 18.0883 20.3252 17.8313 20.3753 17.6988C20.4073 17.6142 20.4539 17.4981 20.5033 17.3753C20.6163 17.094 20.7436 16.7768 20.7436 16.7177C20.7436 16.6329 20.6525 16.623 20.5651 16.6591C20.5141 16.6801 20.3436 16.9823 20.1789 17.2742C20.061 17.4832 19.946 17.687 19.8799 17.7787C19.7522 17.9559 19.3235 18.8452 19.085 19.3399L19.0844 19.3412C19.0273 19.4595 18.9812 19.5552 18.9527 19.613C18.8055 19.912 18.5306 22.7323 18.689 24.387C18.8474 26.0417 19.6775 28.0258 19.8269 28.2746C19.9236 28.4212 19.9753 28.5903 19.9763 28.7631C19.9763 28.833 19.407 29.1617 19.2703 29.1419C19.1335 29.1221 19.0596 28.3637 19.0386 28.1149C19.0177 27.8661 18.3326 25.414 18.2168 25.6332C18.101 25.8523 18.4484 27.4575 18.5433 27.7664C18.5632 27.8314 18.6056 27.9308 18.6562 28.0496C18.8461 28.4955 19.1524 29.2148 18.8279 29.4112C18.417 29.66 18.3236 29.2967 18.3236 29.2967C17.7901 28.158 17.5839 26.9061 17.7259 25.6678C17.7259 25.5194 17.82 24.5079 17.8514 24.2103C17.8828 23.9127 17.9456 22.916 17.8514 22.916C17.7841 22.916 17.7569 22.9999 17.7026 23.1675C17.681 23.2341 17.655 23.3142 17.6206 23.4073C17.4995 23.7346 17.4114 25.3108 17.4427 25.6826C17.4741 26.0544 17.5055 27.4087 17.4427 27.6759C17.3977 27.8675 17.2237 28.2582 17.088 28.5627C17.0345 28.6829 16.9869 28.7898 16.9556 28.8656C16.867 29.0803 16.87 29.4285 16.872 29.658C16.8725 29.7148 16.8729 29.7644 16.8719 29.8028C16.8628 29.957 16.8203 30.1078 16.7472 30.2459C16.6741 30.384 16.5718 30.5065 16.4468 30.6058C16.1367 30.844 15.6137 30.9034 15.6137 30.844C15.6137 30.8161 15.7249 30.6073 15.8525 30.3676C15.9966 30.0972 16.1615 29.7874 16.2114 29.6537C16.253 29.5423 16.365 29.3523 16.4772 29.1621C16.6192 28.9215 16.7613 28.6806 16.7613 28.5977C16.7613 28.4492 16.8405 27.2596 16.8876 27.0214C16.9347 26.7832 16.9511 25.5787 16.8667 25.5639C16.7822 25.549 16.4632 26.6496 16.3803 27.0214C16.2973 27.3932 16.1487 26.8723 16.1008 26.6644C16.0539 26.3984 16.0702 26.1258 16.1487 25.8664C16.1849 25.7704 16.2136 25.5816 16.2434 25.3852C16.2813 25.136 16.321 24.8747 16.3803 24.775C16.4128 24.7204 16.4776 24.6517 16.5535 24.5712C16.7251 24.3891 16.9539 24.1465 16.9974 23.8682C17.0602 23.4667 17.0602 22.4997 17.0602 22.4997C17.0602 22.4997 16.4146 23.1246 16.4782 23.5169C16.5417 23.9092 16.4595 24.2251 16.2742 24.4548C16.0889 24.6846 15.9006 25.0133 15.9006 25.2663C15.9006 25.5194 15.7743 25.6982 15.6645 25.5936C15.5547 25.489 15.4448 24.85 15.4448 24.5227C15.4448 24.1954 16.4498 21.9053 16.6037 21.6706C16.6213 21.6438 16.6369 21.6188 16.6514 21.5957C16.7635 21.4169 16.8028 21.3542 17.0953 21.4656C17.1384 21.478 17.1783 21.4989 17.2124 21.5267C17.2465 21.5546 17.274 21.5889 17.2933 21.6274C17.3126 21.666 17.3231 21.7079 17.3243 21.7505Z" fill="#181928"/>
<path d="M17.5727 28.5425C17.5329 28.5362 17.4921 28.5375 17.4528 28.5461C17.4134 28.5548 17.3763 28.5707 17.3435 28.593C17.3106 28.6152 17.2828 28.6434 17.2615 28.6758C17.2402 28.7083 17.2258 28.7444 17.2193 28.7821C17.1788 28.974 17.1809 29.2537 17.1824 29.463C17.1832 29.5621 17.1838 29.6454 17.1797 29.6961C17.174 29.7676 17.1272 29.8923 17.0833 30.0096C17.0305 30.1506 16.9817 30.2809 17.0131 30.2948C17.0706 30.3202 17.4614 30.2319 17.6527 30.0177C17.8439 29.8035 18.012 29.513 18.0053 29.2296C17.9986 28.9461 17.8992 28.5425 17.5727 28.5425Z" fill="#181928"/>
<path d="M22.703 16.0802C22.7777 16.1431 22.5207 16.4407 22.5207 16.4407C22.5207 16.4407 21.9409 17.6162 21.8004 17.8516C21.66 18.0869 20.8067 19.7558 20.9972 20.4414C21.1634 21.0392 21.0966 21.6585 21.0436 22.1503C21.0358 22.2226 21.0283 22.2921 21.0219 22.3584C20.9718 22.8758 21.7003 24.4507 21.8393 24.6705C21.9783 24.8903 23.0437 26.7005 23.0437 26.7005L23.4741 27.1713C23.4741 27.1713 22.9137 27.7749 22.3533 27.1713C21.793 26.5677 20.5056 23.7226 20.2987 22.3351C20.0917 20.9475 20.2748 19.9523 20.3405 19.6554C20.3712 19.5166 20.5523 19.1406 20.75 18.7298C20.9752 18.2622 21.2219 17.7496 21.2931 17.4911C21.4269 17.0055 21.9663 16.1353 22.115 15.9707C22.2637 15.806 22.6283 16.0173 22.703 16.0802Z" fill="#181928"/>
<path d="M22.0493 20.0102C22.0642 19.75 22.1144 19.4928 22.1987 19.2447C22.325 18.921 22.4602 18.3816 22.1987 18.2629C21.9372 18.1441 21.4926 18.2304 21.4926 19.1365C21.4926 19.4196 21.4708 19.7164 21.4475 20.0318C21.3964 20.7261 21.3385 21.5107 21.4926 22.4375C21.7168 23.7855 22.8039 26.1944 24.2295 27.4391C25.0766 28.1788 25.3356 28.3264 25.5547 28.4513C25.7043 28.5365 25.8352 28.6111 26.122 28.8563C26.8288 29.4607 30.395 30.0976 31.3879 29.9781C32.3809 29.8587 32.6424 29.4176 32.688 29.2557C32.7335 29.0938 32.5968 28.8238 32.4601 28.9426L32.4595 28.9431C32.3212 29.0632 31.5787 29.7081 29.1764 29.2013C26.7705 28.6938 26.1198 28.134 25.983 28.0152C25.9149 27.956 25.5438 27.6024 25.1689 27.245L25.1685 27.2447L25.1673 27.2435L25.167 27.2432C24.7899 26.8838 24.4093 26.5211 24.3296 26.451C24.1704 26.311 22.6111 24.3043 22.6111 24.0237C22.6111 23.9553 22.7309 24.119 22.951 24.42C23.635 25.3552 25.2883 27.6158 27.3316 28.3601C30.0326 29.3441 31.0151 29.1695 31.5396 29.0076L31.6191 28.9831C32.1155 28.8304 32.5856 28.6858 32.5856 28.522C32.5856 28.3495 32.5744 28.0039 32.3913 28.0039C32.3259 28.0039 32.1572 28.0756 31.945 28.1658C31.5636 28.3279 31.0416 28.5497 30.7267 28.522C30.5204 28.5039 30.2776 28.4417 30.0172 28.3751C29.659 28.2834 29.2673 28.1832 28.8909 28.1771C28.2409 28.1665 26.8609 27.4116 26.5307 27.109C26.4818 27.0642 26.4001 27.0067 26.2907 26.9296C25.6614 26.4862 24.1152 25.3967 22.6194 22.3732C22.6194 22.3732 21.9731 20.541 22.0493 20.0102Z" fill="#181928"/>
<path d="M25.9232 29.0536C26.0637 29.0295 26.7794 29.489 26.7794 29.489C26.7794 29.489 27.0492 29.8452 29.6694 30.1329C31.8386 30.3711 32.3252 29.9727 32.5014 29.8285C32.538 29.7985 32.5612 29.7795 32.5833 29.7795C32.7118 29.7795 32.7611 30.2276 32.6954 30.3846C32.6296 30.5415 31.9707 30.7599 31.5747 30.7959C31.3316 30.8181 31.1363 30.8082 30.6994 30.7862C30.4246 30.7724 30.0543 30.7537 29.5163 30.7352C28.5905 30.6905 27.6846 30.464 26.8564 30.07C26.7946 30.0374 26.6368 30.0506 26.4763 30.064C26.3378 30.0756 26.1972 30.0874 26.1145 30.07C25.9359 30.0326 25.8336 29.7802 25.8209 29.5378L25.819 29.503L25.8175 29.4776C25.8051 29.2603 25.7945 29.0756 25.9232 29.0536Z" fill="#181928"/>
<path d="M27.1249 30.4934C27.1249 30.4934 26.6019 30.1301 26.4345 30.2757C26.2672 30.4213 26.2433 30.856 26.7797 30.9769C27.0245 31.0321 27.408 31.1275 27.7781 31.2197C28.2193 31.3295 28.6415 31.4346 28.7873 31.4611C29.0555 31.5099 29.8236 31.6307 30.4116 31.6307C30.7694 31.6307 31.1224 31.5366 31.3989 31.4628C31.5769 31.4153 31.7231 31.3763 31.8185 31.3763C32.0621 31.3763 32.7771 31.3763 32.816 31.2349C32.8457 31.1268 32.7863 30.9295 32.7503 30.81C32.7393 30.7733 32.7304 30.7438 32.7271 30.7267C32.7129 30.6539 32.5089 30.6779 32.3677 30.7507C32.2265 30.8235 31.3837 31.0773 30.9996 31.1041C30.6156 31.131 29.5673 31.155 28.6469 30.9423C28.1298 30.8241 27.6214 30.6742 27.1249 30.4934Z" fill="#181928"/>
<path d="M28.1486 32.175C31.1918 32.6224 32.2916 31.9085 32.2916 31.9085C32.2916 31.9085 32.5987 31.7996 32.4194 31.5699C32.2788 31.3899 31.9501 31.522 31.6423 31.6458C31.5573 31.6799 31.4739 31.7134 31.3965 31.7396C31.0386 31.8604 30.207 31.8937 29.5765 31.8724C28.9459 31.8512 26.6528 31.1338 26.4735 31.0737C26.3547 31.0339 26.2024 30.8715 26.0908 30.7525C26.034 30.6919 25.9877 30.6425 25.9617 30.6263C25.8848 30.5782 25.1055 31.7275 28.1486 32.175Z" fill="#181928"/>
<path d="M26.3291 31.9453C26.3291 31.9453 26.0512 31.7636 26.0512 31.9453C26.0512 32.1269 26.2006 32.4167 26.4995 32.5496C26.736 32.668 26.9993 32.7303 27.2668 32.7313C27.5922 32.7584 27.909 32.8446 28.2 32.985C28.4555 33.1066 29.3641 33.4452 30.9495 33.1667C32.535 32.8882 32.9183 32.5376 32.9952 32.4287C33.0722 32.3199 33.0333 32.1262 32.9952 31.9693C32.9571 31.8124 32.8458 31.7353 32.6964 31.864C32.5469 31.9926 31.6257 32.7673 29.3753 32.6344C27.1249 32.5015 26.3291 31.9453 26.3291 31.9453Z" fill="#181928"/>
<path d="M27.1761 32.973C27.6872 32.8522 27.8792 33.1066 27.8792 33.1066C27.8792 33.1066 27.9689 33.5194 29.5446 33.6523C30.7581 33.7547 31.9742 33.2336 32.586 32.9716C32.7686 32.8933 32.8974 32.8382 32.9561 32.8296C33.2116 32.7921 33.326 32.9978 33.0383 33.3243C32.7506 33.6509 31.8563 33.8926 31.4215 33.9895C31.1281 34.0548 30.4562 34.1037 29.9112 34.1434C29.6485 34.1626 29.4152 34.1795 29.2682 34.1952C28.8161 34.2432 28.6981 34.1952 28.5957 34.1103C28.5749 34.0931 28.4826 34.0408 28.3532 33.9674C27.8462 33.68 26.7691 33.0693 27.1761 32.973Z" fill="#181928"/>
<path d="M30.067 34.427C30.067 34.427 29.3019 34.4362 29.3311 34.5896C29.3602 34.743 29.7226 35.0427 30.067 34.9791C30.1258 34.9682 30.2307 34.9505 30.3661 34.9276L30.3676 34.9274L30.3696 34.9271L30.3723 34.9266L30.3738 34.9263C31.0345 34.8149 32.4029 34.584 32.7269 34.427C32.8288 34.3776 32.9262 34.3374 33.0144 34.3009L33.0148 34.3007C33.2659 34.1969 33.4434 34.1236 33.4434 33.9563C33.4434 33.7301 33.3739 33.4615 33.208 33.5194C33.1827 33.5283 33.1226 33.5586 33.0343 33.6033C32.5426 33.8519 31.1775 34.542 30.067 34.427Z" fill="#181928"/>
<path d="M30.7688 35.4222C30.7688 35.3317 31.6071 35.0787 31.6071 35.0787C31.8091 35.0643 32.5717 34.6909 32.9561 34.5027L32.9566 34.5025C33.0638 34.45 33.1417 34.4119 33.1694 34.4001C33.2264 34.3752 33.2885 34.3623 33.3513 34.3623C33.4141 34.3623 33.4762 34.3752 33.5332 34.4001C33.5997 34.4454 33.6857 34.7974 33.6573 34.9875C33.6357 35.1317 33.2071 35.2292 32.8634 35.3073C32.754 35.3322 32.6532 35.3551 32.5769 35.377C32.4409 35.4159 32.2537 35.5052 32.0625 35.5965C31.8092 35.7173 31.5487 35.8416 31.3904 35.8569C31.1125 35.8838 30.7688 35.5127 30.7688 35.4222Z" fill="#181928"/>
<path d="M32.4126 36.3093C32.321 36.3544 32.2193 36.3779 32.116 36.3779C32.0127 36.3779 31.911 36.3544 31.8194 36.3093C31.4944 36.1552 31.6087 35.9863 31.8941 35.8584C32.0865 35.7721 32.3756 35.6615 32.6052 35.5736C32.7161 35.5312 32.8133 35.494 32.8788 35.4675C33.0798 35.3862 33.5886 35.2052 33.6596 35.2773C33.7306 35.3494 33.8449 35.5403 33.8262 35.6032C33.8076 35.6661 32.4126 36.3093 32.4126 36.3093Z" fill="#181928"/>
<path d="M32.363 36.7073C32.363 36.7801 32.8695 37.0331 32.8695 37.0331C33.0705 37.0692 34.1875 36.7977 34.1875 36.5489C34.1875 36.3001 33.92 36.0647 33.92 36.0647C33.92 36.0647 32.8793 36.4627 32.7246 36.4627C32.5699 36.4627 32.363 36.6344 32.363 36.7073Z" fill="#181928"/>
<path d="M34.1899 37.576C34.1899 37.576 33.9127 37.6304 33.7498 37.576C33.6617 37.5465 33.5653 37.4722 33.4848 37.4102C33.4165 37.3575 33.3597 37.3137 33.3291 37.3137C33.2626 37.3137 33.4838 37.178 33.6601 37.1724C33.7809 37.1685 33.9533 37.1178 34.0837 37.0795C34.1437 37.0619 34.1948 37.0469 34.228 37.0402C34.3333 37.019 34.4671 37.1547 34.4671 37.3229C34.4671 37.4911 34.1899 37.576 34.1899 37.576Z" fill="#181928"/>
<path d="M24.1342 16.2696C24.1342 16.324 23.8399 16.5968 23.8399 16.5968C23.5455 16.9206 23.1592 17.8352 23.1338 18.0635C23.1084 18.2919 23.2093 18.9273 23.3109 19.3111C23.3551 19.4782 23.4449 19.9616 23.5438 20.4936L23.5439 20.494C23.6721 21.1839 23.8155 21.9557 23.8944 22.2254C23.9758 22.5037 24.2117 22.9665 24.4021 23.3401C24.5387 23.608 24.6518 23.8299 24.6677 23.9049C24.7058 24.0844 26.2405 25.5957 26.4556 25.6798C26.5398 25.7127 26.7909 25.9127 27.1011 26.1597C27.5837 26.5441 28.2094 27.0425 28.5723 27.203C29.1686 27.4667 30.9819 27.7664 31.3181 27.7904C31.6543 27.8145 31.4122 28.0201 31.4122 28.0201C30.0905 28.252 28.3825 28.1658 26.747 26.9514C23.3871 24.4562 22.7782 22.1293 22.4995 19.8745C22.2208 17.6197 23.0979 16.0088 23.349 15.9572C23.6 15.9056 24.1342 16.2152 24.1342 16.2696Z" fill="#181928"/>
<path d="M25.0096 16.8365C25.0096 16.8365 25.3264 16.7566 25.3391 16.6591C25.3518 16.5615 25.301 16.3311 24.8908 16.2661C24.4806 16.201 24.0854 16.4781 23.8067 17.1729C23.528 17.8678 23.6573 19.3436 24.0099 20.2548C24.1501 20.6168 24.2024 20.9506 24.2568 21.2975C24.3393 21.8235 24.4266 22.3796 24.8318 23.1097C24.9261 23.2796 25.0066 23.4256 25.0762 23.5518C25.5026 24.325 25.5154 24.3481 25.7441 24.5128C25.9398 24.6538 26.6513 25.3087 27.094 25.7162L27.0944 25.7166C27.2529 25.8624 27.377 25.9767 27.4304 26.024C27.6329 26.2036 28.711 26.8758 28.9247 26.8758C29.1384 26.8758 29.2295 26.552 29.2168 26.3958C29.2041 26.2396 29.1787 26.1562 28.8866 26.1442C28.5944 26.1322 28.1768 25.6763 28.1768 25.6763C28.1768 25.6763 26.6175 24.2852 26.4905 24.2131C26.3634 24.141 25.109 22.786 25.109 22.6298C25.109 22.4736 25.1344 22.2339 25.236 22.3661C25.2471 22.3806 25.2659 22.4056 25.291 22.4392C25.4955 22.712 26.1249 23.5516 26.554 23.9254C27.0359 24.3453 28.5571 25.5681 28.9247 25.7123C29.2923 25.8565 29.4574 25.8685 29.4828 25.5921C29.5082 25.3158 29.6853 25.1843 29.8377 25.2684C29.9901 25.3525 31.1348 25.9753 31.4941 25.9399C31.6886 25.9208 31.9337 25.761 32.1438 25.624C32.3221 25.5078 32.4752 25.4081 32.5506 25.4246C32.715 25.4607 32.2465 25.9639 32.0941 26.0481C31.9417 26.1322 32.2211 26.3117 32.2719 26.3357C32.3666 26.3856 32.4755 26.4056 32.583 26.3929C32.6905 26.3802 32.7909 26.3354 32.8696 26.2651C33.1491 26.0375 33.1745 25.7378 32.9967 25.3179C32.89 25.066 32.8279 24.7248 32.7809 24.4659C32.7495 24.2933 32.7247 24.1571 32.6978 24.1085C32.6886 24.0919 32.6797 24.0738 32.6708 24.0557C32.6148 23.9418 32.56 23.8303 32.44 24.1085L32.4266 24.1397C32.2845 24.4715 32.0189 25.0918 31.1467 25.1376C30.2464 25.185 29.2579 25.067 28.1671 24.382C27.0762 23.6971 25.7583 22.7634 24.719 19.9805C23.6797 17.1977 25.0096 16.8365 25.0096 16.8365Z" fill="#181928"/>
<path fill-rule="evenodd" clip-rule="evenodd" d="M32.1686 22.7213C32.2171 22.7109 32.2679 22.7168 32.3123 22.7379C32.3758 22.786 32.443 23.1309 32.443 23.2511C32.443 23.3712 32.4049 24.5255 31.2005 24.7743C30.2005 24.9809 29.375 24.5618 28.8696 24.3052C28.7664 24.2527 28.6765 24.2071 28.6012 24.1749C28.1574 23.9855 27.1308 23.1345 26.6235 22.6906C26.1162 22.2467 25.635 21.2514 25.4826 20.8195C25.4492 20.7249 25.4038 20.6049 25.3519 20.4675C25.1667 19.9776 24.8975 19.2655 24.7855 18.6849C24.6776 18.1257 24.8156 17.8512 24.9231 17.6372C24.9586 17.5667 24.9907 17.5027 25.0096 17.4373C25.0858 17.1736 25.7583 16.8139 26.037 16.7184C26.3156 16.623 26.5308 17.0174 26.5181 17.1107C26.5054 17.204 26.4494 17.5575 26.4494 17.5575C26.3824 17.9897 26.7922 18.7382 27.1512 19.394L27.1906 19.4659C27.5582 20.1381 28.8515 21.6727 29.8654 22.2007C30.6801 22.625 31.4384 21.8119 31.7703 21.456C31.8515 21.3689 31.9072 21.3092 31.932 21.3016C32.0583 21.2627 32.1479 21.8021 32.0336 22.1498C31.9193 22.4976 31.9955 22.8694 32.0463 22.7945C32.0769 22.7574 32.1201 22.7316 32.1686 22.7213ZM26.8139 22.1796L26.8141 22.1799C26.8958 22.2968 26.9572 22.3847 26.9709 22.4022C27.018 22.4637 27.8114 23.1217 27.8114 23.1217C27.8241 22.9896 27.5073 22.5457 27.1652 22.1739C26.8853 21.893 26.5798 21.6362 26.2521 21.4062C26.2971 21.4403 26.6153 21.8955 26.8139 22.1796ZM29.1382 23.2869C29.3927 23.4713 29.7735 23.7474 30.5625 23.7734C31.5263 23.8067 31.7639 23.3359 31.7183 23.2652C31.6727 23.1945 31.4971 23.1931 31.3126 23.2652C31.3008 23.2698 31.287 23.2756 31.2711 23.2823C31.039 23.3794 30.3765 23.6568 29.4036 23.0256C28.3643 22.3513 27.1846 21.1433 27.0389 20.8669C27.0115 20.815 26.9531 20.723 26.8765 20.6023C26.5452 20.0802 25.8738 19.0223 25.9047 18.3597C25.9047 18.3597 25.8173 17.9399 25.83 17.8444C25.8427 17.749 25.5132 17.9045 25.564 18.1024C25.6148 18.3004 26.1184 19.9791 26.2992 20.3149C26.48 20.6506 26.9365 21.1263 27.4946 21.6741C27.7149 21.8903 27.9531 22.1465 28.1767 22.387C28.5197 22.7558 28.8283 23.0877 28.9852 23.1818C29.0321 23.2099 29.0821 23.2462 29.1382 23.2869Z" fill="#181928"/>
<path fill-rule="evenodd" clip-rule="evenodd" d="M31.8049 20.5071C31.7477 20.5071 31.6619 20.5651 31.5748 20.6238C31.4344 20.7187 31.2908 20.8156 31.2595 20.6746C31.2348 20.564 31.2887 20.3915 31.3513 20.1912C31.4177 19.9783 31.494 19.734 31.4963 19.4992C31.5008 19.0432 31.3992 18.1922 31.1713 17.7603C30.9434 17.3284 30.7275 16.9687 30.3345 17.1949C29.9747 17.402 30.1141 17.5735 30.2669 17.7616C30.281 17.7789 30.2952 17.7964 30.3091 17.814C30.3242 17.8331 30.3414 17.8544 30.3604 17.8778L30.3606 17.8781C30.5498 18.1116 30.9068 18.552 30.9068 19.0425C30.9068 19.5826 30.8187 20.3149 30.6027 20.3615C30.3868 20.4082 29.8556 20.2413 29.3602 19.8936C28.8649 19.5458 28.0901 18.8743 27.9406 18.6707C27.7912 18.4672 27.4714 17.9745 27.5603 17.8932C27.6492 17.8119 27.7882 17.773 27.9152 18.0007C28.0422 18.2283 28.7139 18.9005 28.891 19.0567C28.9122 19.0754 28.9384 19.0986 28.9686 19.1254L28.9694 19.1261C29.1919 19.3236 29.626 19.7087 29.804 19.8243C29.8265 19.8389 29.8496 19.8547 29.8732 19.8708C30.0623 20 30.283 20.1507 30.463 19.8837C30.6655 19.5833 30.6789 18.9005 30.5265 18.6368C30.3741 18.3732 30.1133 17.93 30.0349 17.8162C29.9564 17.7024 29.804 17.5094 29.5119 17.6289C29.2198 17.7483 29.2459 17.9646 29.3341 18.0487C29.3552 18.0688 29.3988 18.1013 29.4536 18.142C29.6277 18.2714 29.914 18.4843 29.943 18.6488C29.9491 18.6833 29.9567 18.7217 29.9646 18.7612C30.0062 18.9694 30.0537 19.2076 29.9049 19.0567C29.8294 18.9801 29.7052 18.8309 29.5788 18.679C29.4089 18.4748 29.2348 18.2657 29.1697 18.2219C29.0561 18.1456 28.2186 17.6649 28.2186 17.6649C28.2186 17.6649 27.2174 17.2691 27.1539 17.1736C27.0904 17.0782 26.8834 17.0535 27.0313 17.6168C27.0527 17.698 27.0733 17.7812 27.0942 17.8657C27.2184 18.367 27.3532 18.9113 27.7113 19.3323C28.0545 19.736 28.1162 19.9293 28.1763 20.1181C28.1895 20.1593 28.2026 20.2005 28.2186 20.2435C28.3075 20.4831 29.157 21.6953 30.2598 21.947C31.2246 22.1671 31.6364 21.2765 31.7669 20.9944C31.7855 20.954 31.7984 20.9261 31.8064 20.9157C31.8699 20.8323 31.9573 20.5071 31.8049 20.5071ZM30.7529 21.2359C30.7281 21.3983 30.5139 21.3403 30.313 21.2858C30.2054 21.2566 30.1015 21.2285 30.0327 21.2359C29.8354 21.2571 29.4469 20.927 29.2063 20.6605C28.9657 20.394 28.7752 20.1233 28.8514 20.0873C28.8894 20.0693 28.984 20.1496 29.1069 20.2541C29.2307 20.3592 29.3833 20.4888 29.5358 20.5672C29.5677 20.5836 29.6008 20.6009 29.6349 20.6187C29.9261 20.7706 30.2875 20.9593 30.537 20.927C30.8157 20.8909 30.7529 21.2359 30.7529 21.2359Z" fill="#181928"/>
<path d="M32.8853 26.7034C32.8853 26.6002 33.1095 26.3605 33.1095 26.3605C33.2974 26.3203 33.3086 26.5183 33.3165 26.6588C33.3176 26.6786 33.3187 26.6973 33.3202 26.714L33.3211 26.7249C33.3327 26.8543 33.3412 26.9493 33.2111 27.025C33.0773 27.1027 32.9944 27.0568 32.9989 26.9543C33.0012 26.9024 32.9721 26.8652 32.9428 26.8278C32.9141 26.7912 32.8853 26.7543 32.8853 26.7034Z" fill="#181928"/>
<path d="M33.3248 27.2285C33.3248 27.2285 33.0947 27.3656 33.1097 27.5254C33.1166 27.5999 33.1113 27.6696 33.1063 27.7344C33.1005 27.8085 33.0953 27.876 33.1097 27.9368C33.1366 28.0506 33.3293 28.0626 33.3898 27.9368C33.4035 27.9083 33.419 27.8822 33.434 27.857C33.4853 27.7708 33.5304 27.695 33.4743 27.5713C33.4468 27.5107 33.4395 27.4291 33.4331 27.3578C33.4227 27.2411 33.4148 27.1522 33.3248 27.2285Z" fill="#181928"/>
<path d="M33.2083 28.8853C33.1836 29.0112 33.5004 28.7942 33.5004 28.7942L33.5032 28.7925C33.6683 28.6952 33.7753 28.6321 33.6192 28.3481C33.509 28.1476 33.4759 28.1782 33.4284 28.222C33.4082 28.2406 33.3855 28.2615 33.3533 28.2683C33.2721 28.2852 33.245 28.5524 33.2262 28.7383C33.2199 28.8006 33.2145 28.8538 33.2083 28.8853Z" fill="#181928"/>
<path d="M33.7523 29.1709C33.7523 29.1709 33.8382 28.8656 33.5961 29.0529C33.5003 29.1271 33.4313 29.1628 33.3837 29.1874C33.3112 29.2249 33.2887 29.2365 33.2973 29.3194C33.3115 29.4565 33.366 29.6728 33.4975 29.6396C33.5154 29.6351 33.5352 29.6319 33.5557 29.6286C33.6858 29.6079 33.8458 29.5824 33.7523 29.1709Z" fill="#181928"/>
<path d="M33.5391 30.1994C33.507 29.9824 33.897 29.8106 33.897 29.8106C33.9825 29.7642 33.9878 29.874 33.9941 30.0056C33.9976 30.0765 34.0013 30.1537 34.0181 30.2164C34.0659 30.3952 33.9336 30.6193 33.8485 30.6235C33.7633 30.6277 33.5713 30.4164 33.5391 30.1994Z" fill="#181928"/>
</g>
<defs>
<filter id="filter0_b_111_193" x="-9.59961" y="-11.1665" width="63.0664" height="67.7666" filterUnits="userSpaceOnUse" color-interpolation-filters="sRGB">
<feFlood flood-opacity="0" result="BackgroundImageFix"/>
<feGaussianBlur in="BackgroundImage" stdDeviation="9.5"/>
<feComposite in2="SourceAlpha" operator="in" result="effect1_backgroundBlur_111_193"/>
<feBlend mode="normal" in="SourceGraphic" in2="effect1_backgroundBlur_111_193" result="shape"/>
</filter>
</defs>
</svg>
