<svg width="1920" height="843" viewBox="0 0 1920 843" fill="none" xmlns="http://www.w3.org/2000/svg">
<g filter="url(#filter0_f_111_14)">
<ellipse rx="276.146" ry="97.6341" transform="matrix(0.998067 -0.0621431 0.466888 0.884316 311.196 480.5)" fill="#838383"/>
</g>
<g filter="url(#filter1_f_111_14)">
<ellipse rx="267.375" ry="48.5845" transform="matrix(0.999999 0.0015841 -0.0134312 0.99991 -135.973 480.342)" fill="#086BC1"/>
</g>
<g filter="url(#filter2_f_111_14)">
<path d="M-178.374 492.05C-406.207 501.994 -514.426 432.985 -591.807 439.959C-689.079 448.726 -634.379 516.369 -540.266 537.58C-429.333 562.583 -23.9753 485.311 -178.374 492.05Z" fill="#00EAFF"/>
</g>
<g filter="url(#filter3_f_111_14)">
<path d="M-299.138 502.604C-368.457 506.92 -394.375 521.575 -385.386 538.602C-366.628 574.13 251.931 548.664 328.949 513.266C385.55 487.252 360.63 457.134 283.101 450.716C195.486 443.464 147.199 449.133 72.6355 463.821C10.4216 476.076 -7.19997 485.069 -76.6602 496.462C-141.674 507.126 -237.566 498.77 -299.138 502.604Z" fill="#3EFFAE"/>
</g>
<g opacity="0.3">
<path d="M-295.355 785.818C-232.446 785.768 -167.317 787.637 -104.783 784.02C-27.5601 779.557 47.2701 767.233 124.219 761.67C186.814 757.147 241.148 761.984 299.728 774.088C348.061 784.075 395.532 794.898 448.132 795.239C503.722 795.602 553.839 781.371 605.253 771.79C664.625 760.725 715.319 763.078 772.694 776.561C827.331 789.402 878.279 805.886 939.952 804.963C1016.21 803.82 1087.77 786.345 1164.33 785.818" stroke="url(#paint0_linear_111_14)" stroke-miterlimit="10"/>
<path d="M-295.355 777.875C-234.059 777.809 -169.945 779.8 -109.105 775.583C-28.5794 770.002 48.9558 755.739 129.106 748.931C192.967 743.504 244.218 749.718 301.561 765.014C346.912 777.111 392.466 791.083 444.335 791.82C502.641 792.639 556.781 774.147 609.38 762.782C636.932 756.86 665.973 751.312 696.008 752.588C725.404 753.842 753.239 760.555 778.946 767.984C830.764 782.923 881.245 803.487 942.906 801.915C1018.83 799.974 1087.99 779.239 1164.33 777.892" stroke="url(#paint1_linear_111_14)" stroke-miterlimit="10"/>
<path d="M-295.355 770.934C-235.548 770.851 -172.476 772.907 -113.296 768.163C-29.6971 761.48 50.2629 745.248 133.386 737.202C198.708 730.873 247 738.404 302.794 756.996C345.095 771.094 388.745 788.323 440.149 789.493C500.971 790.872 559.765 767.853 613.369 754.824C641.448 747.997 672.417 740.798 703.78 742.383C733.177 743.868 760.719 751.981 785.301 760.393C834.313 777.174 884.278 802.083 946.093 799.861C1021.69 797.134 1088.19 773.062 1164.33 770.934" stroke="url(#paint2_linear_111_14)" stroke-miterlimit="10"/>
<path d="M-295.355 763.856C-236.978 763.757 -174.84 765.799 -117.172 760.74C-30.8481 753.16 51.2593 735.336 136.955 726.275C169.585 722.829 200.512 720.836 232.473 726.88C258.514 731.807 281.423 740.455 303.521 749.197C343.055 764.825 384.787 784.868 436.069 786.436C499.119 788.369 562.636 761.357 617.111 747.094C645.676 739.613 678.549 730.948 711.109 732.781C740.637 734.433 767.813 743.719 791.34 752.89C837.746 770.968 887.112 799.582 949.26 796.813C1024.59 793.45 1088.33 766.575 1164.33 763.828" stroke="url(#paint3_linear_111_14)" stroke-miterlimit="10"/>
<path d="M-295.355 757.342C-238.205 757.238 -176.908 759.263 -120.568 753.989C-32.0544 745.703 51.614 726.409 139.469 716.526C172.21 712.844 203.046 710.561 234.845 717.399C260.643 722.979 282.63 732.555 303.653 742.125C340.865 759.043 380.854 781.531 432.389 783.424C465.324 784.637 498.44 775.335 526.884 767.461C558.439 758.725 588.779 748.77 620.324 740.023C649.315 731.99 683.78 722.134 717.434 724.192C747.175 726.008 773.926 736.21 796.612 746.032C840.889 765.238 889.322 796.989 952.068 793.773C1027.26 789.932 1088.34 760.475 1164.33 757.32" stroke="url(#paint4_linear_111_14)" stroke-miterlimit="10"/>
<path d="M-295.355 750.337C-239.228 750.232 -178.581 752.277 -123.325 746.866C-33.2505 738.05 51.391 717.289 140.716 706.715C173.305 702.846 204.374 700.375 235.849 707.754C261.616 713.796 282.944 724.27 303.207 734.573C338.868 752.697 377.347 777.227 429.511 779.344C463.347 780.704 497.427 770.556 526.316 762.165C558.926 752.686 590.178 741.897 622.787 732.406C652.184 723.844 687.662 713.138 722.218 715.321C752.274 717.223 778.568 728.139 800.636 738.602C843.545 758.937 890.498 793.212 954.248 789.758C1029.44 785.684 1088.18 753.631 1164.33 750.359" stroke="url(#paint5_linear_111_14)" stroke-miterlimit="10"/>
<path d="M-295.355 743.274C-240.021 743.187 -179.749 745.249 -125.307 739.937C-34.4742 731.074 50.3981 709.447 140.41 698.697C172.552 694.867 204.198 692.373 235.226 699.725C261.205 705.88 282.239 716.806 302.126 727.436C337.219 746.223 374.561 771.477 427.818 773.512C462.403 774.836 496.573 764.687 525.868 756.005C559.166 746.157 590.994 734.931 624.282 725.072C654.053 716.253 689.682 705.486 724.947 707.631C755.356 709.48 781.204 720.482 802.998 731.282C845.571 752.372 890.282 787.156 955.52 783.77C1030.91 779.858 1087.87 746.179 1164.33 743.285" stroke="url(#paint6_linear_111_14)" stroke-miterlimit="10"/>
<path d="M-295.355 736.703C-240.222 736.515 -180.142 738.853 -125.93 733.396C-35.7137 724.295 48.0763 701.855 137.381 690.77C169.433 686.795 201.06 684.414 232.068 691.734C258.423 697.969 279.873 709.109 300.055 719.951C335.797 739.156 373.536 764.925 427.493 767.329C462.323 768.878 496.291 758.779 525.718 749.894C559.068 739.817 590.836 728.286 624.176 718.204C654.089 709.153 689.538 698.454 725.067 700.769C755.68 702.764 781.376 713.871 803.211 724.874C845.957 746.421 889.819 781.005 955.576 777.791C1031.18 774.109 1087.56 739.25 1164.33 736.703" stroke="url(#paint7_linear_111_14)" stroke-miterlimit="10"/>
<path d="M-295.355 730.75C-239.988 730.41 -180.089 733.348 -125.684 727.532C-37.0667 718.059 44.8397 695.335 132.514 683.901C164.952 679.667 195.748 677.465 227.203 684.808C254.035 691.063 276.245 702.046 297.168 712.754C334.097 731.678 373.428 757.61 427.387 760.877C462.004 762.975 496.095 752.887 525.269 744.04C558.214 734.051 589.507 722.551 622.442 712.551C652.295 703.484 687.744 692.908 723.223 695.648C753.745 698.004 779.817 709.229 801.956 720.069C844.927 741.102 890.056 774.908 955.024 771.8C1030.81 768.17 1087.37 733.243 1164.33 730.75" stroke="url(#paint8_linear_111_14)" stroke-miterlimit="10"/>
<path d="M-295.355 724.423C-239.674 724.015 -179.937 727.78 -125.198 721.61C-38.3863 711.823 41.3806 688.748 127.209 677.023C159.921 672.542 189.997 670.544 221.806 677.81C249.054 684.036 272.156 694.759 293.859 705.41C332.024 724.125 373.17 750.024 427.078 754.092C461.381 756.685 495.207 746.782 524.118 737.953C556.505 728.045 587.139 716.59 619.506 706.687C649.267 697.582 684.381 687.283 719.698 690.421C750.251 693.14 776.789 704.441 799.425 715.191C842.962 735.833 889.572 768.872 954.042 765.8C1030.16 762.178 1087.04 726.944 1164.33 724.456" stroke="url(#paint9_linear_111_14)" stroke-miterlimit="10"/>
<path d="M-295.355 718.273C-239.29 717.883 -179.587 722.631 -124.464 716.165C-39.642 706.224 37.8009 682.978 121.609 671.084C154.452 666.423 183.959 664.672 216.031 671.709C243.764 677.791 267.727 688.176 290.271 698.605C330.026 716.933 372.61 742.386 426.668 747.189C460.564 750.197 493.791 740.75 522.417 732.006C554.093 722.324 583.945 711 615.602 701.306C645.251 692.222 679.685 682.462 714.787 685.937C745.481 688.983 772.565 700.208 795.879 710.78C840.287 730.908 888.557 762.843 952.681 759.797C1029.26 756.158 1086.57 720.787 1164.33 718.289" stroke="url(#paint10_linear_111_14)" stroke-miterlimit="10"/>
<path d="M-295.355 711.847C-238.833 711.539 -179.148 717.441 -123.528 710.681C-40.8328 700.632 34.1485 677.128 115.8 665.143C148.622 660.314 177.725 658.812 209.96 665.556C238.19 671.463 262.995 681.507 286.461 691.638C328.022 709.586 371.904 734.481 426.166 739.987C491.649 746.637 557.821 712.028 610.887 695.714C640.425 686.628 673.927 677.524 708.726 681.336C739.664 684.73 767.317 695.868 791.432 706.303C836.966 725.999 887.041 756.857 951.004 753.787C1028.15 750.091 1086.01 714.388 1164.33 711.847" stroke="url(#paint11_linear_111_14)" stroke-miterlimit="10"/>
<path d="M-295.355 705.642C-238.336 705.472 -178.641 712.608 -122.443 705.642C-41.9681 695.63 30.4283 672.118 109.809 660.145C142.52 655.216 171.339 653.989 203.665 660.315C232.412 665.951 258.079 675.508 282.467 685.279C325.832 702.64 371.022 726.602 425.557 732.763C490.047 740.037 553.371 706.573 605.454 690.591C634.252 681.768 667.825 672.873 701.671 677.419C733.095 681.636 760.778 691.862 786.262 702.268C833.104 721.382 885.105 750.864 949.068 747.775C1026.88 744.024 1085.36 708.205 1164.33 705.603" stroke="url(#paint12_linear_111_14)" stroke-miterlimit="10"/>
<path d="M-295.355 699.946C-237.8 699.946 -178.044 708.494 -121.218 701.234C-43.0342 691.244 26.7059 667.515 103.744 655.549C237.548 634.749 307.349 711.538 424.883 726.234C488.237 734.165 548.358 701.746 599.497 686.009C628.163 677.203 660.438 669.183 693.859 674.01C725.678 678.606 754.01 688.657 780.517 698.917C828.818 717.631 882.836 745.911 946.93 742.757C1025.46 738.904 1084.63 702.626 1164.33 699.946" stroke="url(#paint13_linear_111_14)" stroke-miterlimit="10"/>
<path d="M-295.355 694.475C-237.243 694.706 -177.386 704.653 -119.881 697.181C-44.0294 687.328 23.0443 663.555 97.6799 651.698C228.715 630.891 308.521 703.965 424.159 719.706C486.417 728.189 542.929 697.22 593.135 681.793C621.68 673.023 652.546 666.064 685.489 671.109C717.734 676.06 746.785 685.853 774.357 695.894C824.208 714.05 880.284 740.959 944.651 737.735C1023.95 733.768 1083.86 697.242 1164.33 694.475" stroke="url(#paint14_linear_111_14)" stroke-miterlimit="10"/>
<path d="M-295.355 688.897C-236.662 689.365 -176.682 700.787 -118.455 693.114C-44.9211 683.423 19.4083 659.577 91.7357 647.857C219.999 627.07 309.681 696.284 423.449 713.107C484.595 722.148 537.267 692.645 586.593 677.492C615.038 668.755 644.374 662.901 676.813 668.121C709.504 673.407 739.307 683.004 767.975 692.816C819.43 710.456 877.576 736.011 942.27 732.709C1022.35 728.614 1083.05 691.741 1164.33 688.875" stroke="url(#paint15_linear_111_14)" stroke-miterlimit="10"/>
<path d="M-295.355 683.221C-236.096 683.934 -175.945 696.854 -116.949 688.998C-45.6883 679.501 15.9835 655.575 85.9775 644.021C211.511 623.296 310.779 688.539 422.678 706.423C482.718 716.02 531.435 688.009 579.919 673.105C608.241 664.398 636.147 659.683 668.048 665.106C701.195 670.744 731.777 680.126 761.518 689.722C814.584 706.86 874.776 731.073 939.874 727.678C1020.8 723.455 1082.24 686.218 1164.33 683.221" stroke="url(#paint16_linear_111_14)" stroke-miterlimit="10"/>
<path d="M-295.355 678.043C-235.551 678.987 -175.198 693.227 -115.525 685.3C-46.4554 676.123 12.6095 652.388 80.3716 641.149C203.418 620.743 311.888 681.269 421.969 700.007C480.913 710.045 525.665 683.814 573.357 669.289C601.556 660.704 628.094 657.171 659.385 662.706C692.987 668.641 724.339 677.736 755.144 686.995C809.769 703.419 871.966 726.09 937.508 722.65C1019.24 718.344 1081.45 681.093 1164.33 678.054" stroke="url(#paint17_linear_111_14)" stroke-miterlimit="10"/>
<path d="M-295.355 672.364C-234.95 673.537 -174.453 689.205 -114.048 681.137C-47.0533 672.187 9.5205 648.374 75.1769 637.332C195.866 617.032 313.018 673.581 421.259 693.39C479.222 703.998 519.972 679.121 567.007 664.83C595.116 656.293 620.266 653.815 651.031 659.532C685.071 665.832 717.184 674.781 748.994 683.808C805.121 699.729 869.237 721.153 935.238 717.612C1017.74 713.178 1080.68 675.508 1164.33 672.364" stroke="url(#paint18_linear_111_14)" stroke-miterlimit="10"/>
<path d="M-295.355 667.58C-234.383 668.925 -173.715 685.631 -112.631 677.601C-47.5534 669.05 6.678 645.59 70.367 634.967C132.15 624.658 197.877 636.296 255.585 648.731C311.236 660.727 364.139 676.461 420.621 687.34C477.853 698.365 514.355 675.013 561.034 661.297C623.02 643.094 686.507 666.18 743.242 681.149C800.727 696.297 866.646 716.144 933.082 712.58C1016.31 708.12 1079.94 670.748 1164.33 667.574" stroke="url(#paint19_linear_111_14)" stroke-miterlimit="10"/>
<path d="M-295.355 662.438C-233.814 663.964 -173.134 682.098 -111.268 673.885C-47.9216 665.468 4.1521 641.666 66.1297 631.118C127.347 620.685 194.809 632.016 252.792 643.578C309.57 654.903 363.61 669.858 420.083 681.624C476.556 693.39 509.542 670.844 555.625 657.117C616.203 639.077 682.337 664.278 738.091 678.407C796.784 693.28 864.377 712.206 931.18 708.538C1015.06 703.927 1079.32 665.732 1164.33 662.438" stroke="url(#paint20_linear_111_14)" stroke-miterlimit="10"/>
<path d="M-295.355 657.58C-233.236 659.215 -172.607 678.151 -110.022 669.98C-48.1869 661.911 1.97062 638.382 62.3056 628.151C123.056 617.882 192.058 628.631 250.305 639.118C308.085 649.528 363.21 663.431 419.592 675.781C446.191 681.605 465.684 681.845 491.402 674.332C512.304 668.225 529.983 659.356 550.855 653.206C578.701 644.99 600.88 645.219 630.044 651.326C665.088 658.675 699.229 667.125 733.613 675.335C793.289 689.543 862.352 707.172 929.458 703.511C1013.92 698.902 1078.71 660.876 1164.33 657.58" stroke="url(#paint21_linear_111_14)" stroke-miterlimit="10"/>
<path d="M-295.355 652.721C-232.658 654.373 -172.211 674.428 -108.896 666.141C-48.2865 658.206 0.158146 634.335 59.2771 624.257C119.714 613.954 189.983 624.368 248.464 634.169C306.944 643.971 363.093 657.297 419.292 670.513C445.263 676.62 464.25 677.485 489.744 669.93C509.958 663.938 526.826 655.095 546.988 649.059C574.682 640.766 596.517 641.647 625.175 648.024C660.391 655.86 695.059 664.384 730.093 672.452C790.519 686.361 860.931 703.19 928.139 699.478C1013.07 694.792 1078.3 656.124 1164.33 652.771" stroke="url(#paint22_linear_111_14)" stroke-miterlimit="10"/>
<path d="M-295.355 648.707C-232.074 650.31 -171.975 670.991 -107.953 662.708C-48.2496 654.975 -1.3179 631.001 56.9767 621.254C117.329 611.149 188.355 621.056 247.197 630.129C306.515 639.267 363.148 651.995 419.111 665.892C444.553 672.203 463.326 673.532 488.627 666.001C508.291 660.156 524.479 651.397 544.083 645.496C571.644 637.203 593.457 638.548 621.677 645.145C656.942 653.378 692.014 661.896 727.583 669.767C788.401 683.23 859.985 699.136 927.138 695.464C1012.4 690.799 1077.94 652.039 1164.33 648.707" stroke="url(#paint23_linear_111_14)" stroke-miterlimit="10"/>
<path d="M-295.355 643.982C-231.494 645.424 -171.911 666.428 -107.178 658.193C-48.0906 650.677 -2.17134 626.799 55.4255 617.247C115.587 607.276 187.547 616.888 246.543 625.324C306.471 633.897 363.358 646.175 419.06 660.702C444.087 667.233 462.962 668.812 488.131 661.295C507.391 655.542 523.072 646.85 542.302 641.043C569.762 632.748 591.881 634.316 619.767 641.157C654.961 649.789 690.298 658.296 726.263 665.971C787.266 678.984 859.682 694.049 926.564 690.463C1012.03 685.885 1077.73 647.242 1164.33 643.982" stroke="url(#paint24_linear_111_14)" stroke-miterlimit="10"/>
<path d="M-295.355 639.287C-231.17 640.602 -172.002 662.145 -106.873 653.712C-47.9893 646.091 -2.34367 621.886 55.0707 612.249C115.171 602.165 187.456 612.117 246.472 620.495C306.613 629.032 363.318 641.397 419.09 656.203C444.026 662.83 463.164 664.21 488.162 656.633C507.29 650.835 522.87 642.093 541.998 636.278C569.367 627.961 591.891 629.507 619.513 636.648C654.556 645.705 689.933 654.402 726.05 662.112C786.759 675.073 860.118 690.188 926.483 686.411C1011.82 681.562 1077.96 643.015 1164.33 639.304" stroke="url(#paint25_linear_111_14)" stroke-miterlimit="10"/>
<path d="M-295.355 634.765C-230.988 636.004 -171.956 657.545 -106.635 649.07C-47.8051 641.435 -1.89782 617.596 55.5928 608.085C115.731 598.135 187.898 608.452 246.86 616.828C306.845 625.352 363.342 637.612 419.534 651.621C472.724 664.878 499.086 644.49 542.894 631.775C570.28 623.827 592.96 625.275 620.346 632.395C655.258 641.473 690.596 650.09 726.726 657.66C787.117 670.309 861.475 685.393 927.405 681.323C1012.43 676.068 1079.42 639.339 1165.27 634.847" stroke="url(#paint26_linear_111_14)" stroke-miterlimit="10"/>
<path d="M-295.355 631.187C-230.794 632.378 -171.902 654 -106.377 645.484C-47.5463 637.833 -1.45553 614.331 56.0667 604.941C116.206 595.103 188.162 605.777 247.033 614.151C306.787 622.649 363.072 634.81 419.59 648.064C472.335 660.438 499.64 640.483 543.479 628.388C570.866 620.813 593.749 622.212 620.892 629.317C655.643 638.412 690.88 646.933 727 654.344C787.15 666.691 862.25 681.562 927.633 677.234C1012.24 671.637 1080.05 636.63 1165.27 631.443" stroke="url(#paint27_linear_111_14)" stroke-miterlimit="10"/>
<path d="M-294.418 626.578C-229.676 627.738 -170.915 649.555 -105.19 640.993C-46.4691 633.345 -0.135111 610.09 57.3895 600.79C117.489 591.107 189.164 602.059 247.885 610.445C307.315 618.925 363.441 631.004 420.124 643.537C472.459 655.096 500.679 635.566 544.6 624.023C572.04 616.819 595.08 618.219 622.003 625.325C656.538 634.445 691.681 642.875 727.716 650.118C787.674 662.181 863.18 676.7 928.074 672.143C1012.21 666.24 1080.75 632.847 1165.27 627.016" stroke="url(#paint28_linear_111_14)" stroke-miterlimit="10"/>
<path d="M-294.418 622.895C-229.401 624.049 -170.75 646.121 -104.689 637.52C-46.0178 629.887 0.600883 606.804 58.1774 597.654C118.258 588.104 189.569 599.346 248.271 607.737C307.378 616.195 363.333 628.195 420.251 640.019C472.191 650.811 501.405 631.721 545.53 620.759C573.062 613.916 596.285 615.371 623.036 622.483C657.301 631.685 692.463 639.873 728.366 647.011C788.274 658.785 863.995 672.823 928.515 668.039C1012.1 661.872 1081.49 630.04 1165.27 623.631" stroke="url(#paint29_linear_111_14)" stroke-miterlimit="10"/>
<path d="M-294.418 618.809C-229.109 619.955 -170.479 642.086 -104.095 633.548C-45.4757 626.02 1.45629 603.382 59.1026 594.472C119.161 585.192 190.168 596.541 248.756 604.845C307.548 613.164 363.35 624.928 420.398 635.917C471.952 645.853 502.22 627.44 546.607 617.204C574.27 610.822 597.665 612.351 624.263 619.387C658.322 628.473 693.355 636.459 729.176 643.304C789.113 654.642 864.823 667.837 928.997 662.956C1012.05 656.64 1082.22 626.73 1165.27 619.862" stroke="url(#paint30_linear_111_14)" stroke-miterlimit="10"/>
<path d="M-294.418 614.654C-228.772 615.802 -170.151 638.041 -103.39 629.6C-44.8099 622.192 2.45797 599.965 60.1261 591.301C120.156 582.283 190.789 593.726 249.329 601.928C307.687 610.086 363.469 621.621 420.58 631.792C471.771 640.912 503.154 623.193 547.847 613.686C575.663 607.769 599.241 609.406 625.728 616.406C659.555 625.371 694.431 633.148 730.137 639.689C790.177 650.566 865.656 662.836 929.558 657.859C1012.03 651.442 1082.97 623.4 1165.27 616.139" stroke="url(#paint31_linear_111_14)" stroke-miterlimit="10"/>
<path d="M-294.418 610.843C-228.408 612.034 -169.736 634.798 -102.591 626.284C-44.0513 618.905 3.56081 596.726 61.2894 588.179C121.278 579.301 191.526 590.986 249.934 599.208C307.885 607.369 363.607 618.801 420.737 628.319C471.573 636.783 504.132 619.495 549.159 610.595C577.147 605.081 600.907 606.867 627.313 613.904C660.916 622.886 695.647 630.561 731.245 636.871C791.477 647.476 866.529 658.863 930.198 653.729C1012.07 647.112 1083.74 620.527 1165.27 612.784" stroke="url(#paint32_linear_111_14)" stroke-miterlimit="10"/>
<path d="M-294.418 607.265C-228.011 608.475 -169.349 631.192 -101.706 622.891C-43.2065 615.708 4.78135 594.157 62.5715 585.97C122.511 577.484 192.323 589.072 250.651 597.095C308.198 605.014 363.869 616.029 420.95 624.641C471.442 632.271 505.248 615.882 550.631 607.843C578.811 602.856 602.754 604.812 629.1 611.658C662.468 620.402 697.035 627.756 732.496 633.656C792.962 643.657 867.407 653.751 930.894 648.617C1012.16 642.077 1084.51 617.604 1165.27 609.636" stroke="url(#paint33_linear_111_14)" stroke-miterlimit="10"/>
<path d="M-294.418 602.983C-227.597 604.242 -168.875 627.268 -100.807 619.049C-42.2774 612.007 6.08484 590.742 63.9452 582.808C123.823 574.599 193.148 586.228 251.474 594.162C308.595 601.943 364.225 612.685 421.244 620.527C471.39 627.427 506.514 611.738 552.271 604.466C580.654 599.957 604.769 602.113 631.094 608.953C664.219 617.577 698.613 624.703 733.921 630.256C794.62 639.783 868.313 648.67 931.658 643.455C1012.29 636.85 1085.28 614.195 1165.27 605.922" stroke="url(#paint34_linear_111_14)" stroke-miterlimit="10"/>
<path d="M-294.418 599.696C-227.181 601.002 -168.388 624.416 -99.7221 616.275C-41.284 609.341 7.48371 588.341 65.4049 580.652C125.211 572.71 194.06 584.395 252.255 592.227C308.96 599.878 364.549 610.339 421.447 617.433C471.279 623.65 507.791 608.614 553.903 602.132C582.489 598.103 606.797 600.478 633.132 607.318C666.006 615.832 700.215 622.729 735.35 627.927C796.444 636.966 869.226 644.517 932.469 639.276C1012.47 632.662 1086.04 611.761 1165.27 603.19" stroke="url(#paint35_linear_111_14)" stroke-miterlimit="10"/>
<path d="M-294.418 595.955C-226.695 597.327 -167.79 620.769 -98.6375 612.849C-40.2095 606.165 8.98394 585.757 66.9457 578.449C126.702 570.923 195.033 582.445 253.147 590.08C309.426 597.475 364.975 607.455 421.72 613.691C471.259 619.157 509.21 605.05 555.667 599.481C584.465 596.01 608.956 598.617 635.331 605.307C667.956 613.559 701.976 620.102 736.921 624.846C798.39 633.219 870.158 639.27 933.32 634.067C1012.69 627.535 1086.79 608.788 1165.27 600.093" stroke="url(#paint36_linear_111_14)" stroke-miterlimit="10"/>
<path d="M-294.418 592.538C-226.208 593.996 -167.202 617.911 -97.4718 610.085C-39.0945 603.529 10.4943 583.343 68.5574 576.295C128.232 569.049 196.037 580.609 254.059 588.153C309.933 595.416 365.411 605.076 421.974 610.571C471.259 615.359 510.68 601.966 557.492 597.178C586.493 594.212 611.155 597.106 637.622 603.805C669.993 611.937 703.815 618.23 738.553 622.583C800.387 630.404 871.061 634.999 934.192 629.763C1012.94 623.241 1087.51 606.296 1165.27 597.332" stroke="url(#paint37_linear_111_14)" stroke-miterlimit="10"/>
<path d="M-294.418 589.742C-225.732 591.267 -166.574 615.243 -96.3061 607.657C-37.9186 601.354 12.0858 581.751 70.2198 575.097C129.814 568.279 197.081 579.644 255.063 586.961C310.541 593.966 365.938 603.099 422.319 607.761C471.39 611.814 512.312 599.38 559.458 595.502C588.672 593.094 613.507 596.242 640.075 602.797C672.194 610.664 705.818 616.591 740.338 620.47C802.587 627.562 872.054 630.568 935.165 625.407C1013.22 619.011 1088.23 604.212 1165.27 595.162" stroke="url(#paint38_linear_111_14)" stroke-miterlimit="10"/>
<path d="M-294.418 586.177C-225.232 587.801 -165.919 612.227 -95.0699 604.795C-36.6796 598.648 13.7429 579.288 71.9507 572.931C131.466 566.446 198.189 577.786 256.103 584.991C311.209 591.847 366.507 600.582 422.647 604.495C471.549 607.904 513.963 596.231 561.415 593.2C590.813 591.321 615.842 594.79 642.513 601.33C674.384 609.054 707.806 614.7 742.091 618.152C804.739 624.598 872.982 626.033 936.097 620.857C1013.59 614.505 1088.89 601.619 1165.27 592.34" stroke="url(#paint39_linear_111_14)" stroke-miterlimit="10"/>
<path d="M-294.418 583.329C-224.73 585.028 -165.25 609.586 -93.8397 602.381C-35.4644 596.485 15.3999 577.68 73.6738 571.745C133.083 565.677 199.243 576.836 257.142 583.809C311.878 590.428 367.05 598.586 422.952 601.692C471.759 604.406 515.619 593.694 563.432 591.564C593.041 590.246 618.169 594.002 645.091 600.423C676.713 607.881 709.929 613.151 743.961 616.111C886.884 628.958 1026.94 607.285 1165.27 590.185" stroke="url(#paint40_linear_111_14)" stroke-miterlimit="10"/>
<path d="M-294.418 580.495C-224.211 582.276 -164.557 606.89 -92.5555 599.957C-34.1782 594.334 17.1237 576.116 75.4706 570.564C134.781 564.919 200.385 575.869 258.165 582.594C312.589 588.946 367.601 596.526 423.251 598.811C472.049 600.834 517.289 591.138 565.459 589.878C595.241 589.111 620.582 593.166 647.658 599.453C678.919 606.759 712.117 611.417 745.821 613.993C885.11 624.642 1030.39 604.873 1165.27 587.998" stroke="url(#paint41_linear_111_14)" stroke-miterlimit="10"/>
<path d="M-294.418 577.727C-223.694 579.605 -163.857 604.472 -91.2681 597.759C-32.8807 592.341 18.847 574.582 77.2648 569.394C136.473 564.141 201.511 574.961 259.229 581.471C313.359 587.592 368.178 594.646 423.575 596.189C472.465 597.55 518.982 588.756 567.517 588.388C597.471 588.163 622.975 592.544 650.263 598.763C681.322 605.839 714.296 610.105 747.717 612.224C811.386 616.258 875.946 612.822 939.088 607.887C1014.85 601.964 1090.72 595.464 1165.27 585.929" stroke="url(#paint42_linear_111_14)" stroke-miterlimit="10"/>
<path d="M-294.418 574.836C-223.787 576.759 -164.032 601.474 -91.5157 595.385C-33.3626 590.483 18.4654 573.551 76.4259 568.415C135.015 563.225 198.743 573.524 255.953 579.743C311.258 585.734 367.283 592.428 423.895 593.266C474.152 594.012 523.121 585.767 573.266 586.731C603.534 587.314 628.764 592.629 656.507 598.533C685.325 604.665 715.755 608.178 746.53 609.839C812.032 613.374 876.996 608.162 941.718 603.244C1016.42 597.569 1091.8 593.201 1165.27 583.714" stroke="url(#paint43_linear_111_14)" stroke-miterlimit="10"/>
<path d="M-294.418 572.108C-223.299 574.139 -163.3 599.249 -90.2443 593.35C-32.0799 588.653 20.1648 572.042 78.2177 567.246C136.686 562.439 199.909 572.668 257.039 578.732C312.082 584.581 367.894 590.804 424.214 590.804C474.766 590.804 524.821 583.599 575.383 585.437C605.692 586.535 631.135 592.198 659.092 598.02C687.718 603.98 717.946 607.146 748.457 608.397C814.173 611.091 878.014 604.161 942.727 599.343C1016.95 593.817 1092.31 591.463 1165.27 581.783" stroke="url(#paint44_linear_111_14)" stroke-miterlimit="10"/>
<path d="M-294.418 569.383C-222.759 571.513 -162.636 596.892 -88.96 591.209C-30.7733 586.719 21.8787 570.533 80.0147 566.099C138.364 561.637 201.092 571.821 258.194 577.702C312.934 583.352 368.536 589.03 424.563 588.227C475.482 587.495 526.522 581.355 577.511 584.056C607.862 585.668 633.508 591.649 661.649 597.359C690.033 603.12 720.119 605.92 750.348 606.751C816.239 608.572 879.028 599.973 943.723 595.274C1017.48 589.916 1092.74 589.619 1165.27 579.793" stroke="url(#paint45_linear_111_14)" stroke-miterlimit="10"/>
<path d="M-294.418 567.64C-222.263 569.837 -161.888 595.397 -87.6957 589.958C-29.4996 585.689 23.557 569.964 81.7835 565.931C140.01 561.898 202.23 571.931 259.18 577.601C313.787 583.04 369.125 588.177 424.847 586.568C476.211 585.084 528.122 580.051 579.537 583.595C609.948 585.689 635.776 591.985 664.18 597.556C692.584 603.128 722.285 605.523 752.229 605.941C818.119 606.869 880.076 596.672 944.699 592.111C1018.03 586.936 1093.23 588.694 1165.27 578.738" stroke="url(#paint46_linear_111_14)" stroke-miterlimit="10"/>
<path d="M-294.418 564.954C-221.766 567.248 -161.177 592.813 -86.4576 587.656C-28.2307 583.619 25.2115 568.461 83.5195 564.79C141.584 561.135 203.42 571.044 260.268 576.491C314.714 581.702 369.748 586.274 425.197 583.887C477.068 581.653 529.75 577.736 581.621 582.084C611.941 584.63 638.074 591.218 666.68 596.631C694.76 601.941 724.461 603.983 754.082 604C819.972 604.044 881.139 592.354 945.671 587.94C1018.66 582.947 1093.67 586.733 1165.27 576.676" stroke="url(#paint47_linear_111_14)" stroke-miterlimit="10"/>
<path d="M-294.418 563C-221.281 565.369 -160.51 591.124 -85.2541 586.168C-26.9977 582.348 26.829 567.612 85.2071 564.337C143.21 561.063 204.427 570.886 261.284 576.137C315.618 581.136 370.377 585.191 425.501 582.031C477.929 579.029 531.289 576.202 583.636 581.354C613.945 584.329 640.301 591.244 669.12 596.527C697.068 601.646 726.515 603.322 755.861 602.951C821.649 602.126 882.177 588.951 946.617 584.645C1019.19 579.799 1094.01 585.617 1165.27 575.367" stroke="url(#paint48_linear_111_14)" stroke-miterlimit="10"/>
<path d="M-294.418 561C-220.827 563.447 -159.847 589.335 -84.0972 584.605C-25.8127 580.96 28.4172 566.722 86.8233 563.763C144.702 560.831 205.42 570.623 262.244 575.669C316.474 580.47 370.958 584.012 425.765 580.099C478.779 576.317 532.796 574.563 585.505 580.497C615.783 583.903 642.361 591.134 671.432 596.299C699.206 601.203 728.5 602.555 757.591 601.808C823.205 600.135 883.212 585.554 947.538 581.347C1019.76 576.623 1094.35 584.447 1165.27 574.012" stroke="url(#paint49_linear_111_14)" stroke-miterlimit="10"/>
<path d="M-294.418 559C-220.42 561.517 -159.215 587.529 -82.9778 583.001C-24.6617 579.533 29.8735 565.757 88.4126 563.132C146.191 560.544 206.464 570.296 263.199 575.156C317.359 579.804 371.57 582.805 426.054 578.163C479.687 573.596 534.192 572.89 587.358 579.576C617.576 583.381 644.407 590.921 673.672 595.955C701.304 600.707 730.437 601.691 759.225 600.592C824.606 598.097 884.2 582.207 948.405 578.065C1020.38 573.439 1094.67 583.245 1165.27 572.585" stroke="url(#paint50_linear_111_14)" stroke-miterlimit="10"/>
<path d="M-294.418 557C-219.954 559.63 -158.586 586.354 -81.9221 581.915C-23.5549 578.542 31.3151 564.9 89.9154 562.548C147.603 560.234 207.41 570.187 264.095 574.992C318.204 579.58 372.152 582.132 426.333 576.656C480.513 571.18 535.556 571.502 589.138 579.08C619.285 583.347 646.38 591.286 675.807 596.401C703.176 601.166 732.35 601.766 760.783 600.284C825.902 596.956 885.161 579.43 949.235 575.258C1020.89 570.592 1094.97 582.626 1165.27 571.452" stroke="url(#paint51_linear_111_14)" stroke-miterlimit="10"/>
<path d="M-294.418 556C-219.546 558.675 -158.044 585.476 -80.9213 581.226C-22.5723 578.026 32.624 564.843 91.2973 562.804C148.856 560.803 208.279 570.752 264.905 575.4C318.986 579.822 372.682 581.884 426.55 575.71C481.432 569.425 536.801 570.735 590.771 579.026C620.857 583.636 648.187 591.844 677.787 596.868C705.046 601.494 734.068 601.759 762.209 599.985C792.914 598.045 822.849 593.601 852.327 588.671C884.137 583.359 916.87 575.257 950.008 573.112C1021.42 568.486 1095.25 582.464 1165.27 571.001" stroke="url(#paint52_linear_111_14)" stroke-miterlimit="10"/>
<path d="M-294.418 554C-219.181 556.715 -157.569 583.642 -80.0003 579.542C-21.6011 576.452 33.8888 563.656 92.6327 561.924C150.099 560.208 209.097 570.2 265.671 574.725C319.752 579.04 373.235 580.612 426.789 573.754C482.268 566.647 538.001 568.904 592.366 577.898C622.321 582.864 649.883 591.306 679.636 596.25C706.782 600.758 735.673 600.725 763.539 598.65C794.184 596.377 823.946 591.554 853.252 586.318C884.829 580.678 917.612 572.17 950.739 570.013C1021.93 565.383 1095.53 581.296 1165.27 569.461" stroke="url(#paint53_linear_111_14)" stroke-miterlimit="10"/>
<path d="M-294.418 553C-218.838 555.756 -157.065 582.813 -79.1634 578.839C-20.7248 575.852 35.0274 563.456 93.8208 561.973C151.205 560.524 209.806 570.621 266.339 575.025C320.429 579.23 373.718 580.36 426.956 572.82C483.073 564.9 539.059 568.042 593.807 577.715C623.65 582.984 651.415 591.676 681.318 596.559C708.353 600.969 737.071 600.66 764.734 598.318C795.306 595.727 824.916 590.546 854.069 585.029C885.432 579.093 918.255 570.219 951.382 568.031C1022.34 563.346 1095.76 581.176 1165.27 568.929" stroke="url(#paint54_linear_111_14)" stroke-miterlimit="10"/>
<path d="M-294.418 552C-218.524 554.758 -156.649 582.02 -78.4133 578.137C-19.9038 575.231 36.1323 563.169 94.9865 561.928C152.31 560.714 210.546 570.967 267.018 575.286C321.128 579.417 374.265 580.129 427.179 571.938C483.874 563.163 540.001 567.134 595.135 577.454C624.877 583.03 652.824 591.954 682.849 596.796C709.792 601.137 738.409 600.585 765.808 597.993C796.34 595.103 825.788 589.587 854.809 583.802C886 577.575 918.843 568.392 952.011 566.153C1022.83 561.365 1096.06 581.099 1165.27 568.359" stroke="url(#paint55_linear_111_14)" stroke-miterlimit="10"/>
<path d="M-294.418 551C-218.23 553.764 -156.295 581.26 -77.7559 577.429C-19.2367 574.577 37.0525 562.808 95.9569 561.757C153.219 560.757 211.069 571.216 267.541 575.483C321.681 579.574 374.717 579.906 427.326 571.061C484.609 561.426 540.766 566.158 596.305 577.142C625.914 583.001 654.023 592.15 684.16 596.971C711.022 601.271 739.496 600.509 766.703 597.689C797.194 594.522 826.51 588.695 855.409 582.653C886.458 576.158 919.271 566.716 952.529 564.411C1023.19 559.463 1096.34 581.105 1165.27 567.772" stroke="url(#paint56_linear_111_14)" stroke-miterlimit="10"/>
<path d="M-294.418 550C-218.605 552.772 -156.872 580.35 -78.7883 576.774C-17.0858 573.951 42.5591 561.205 104.819 561.466C158.047 561.687 211.458 571.251 264.038 575.365C319.901 579.734 373.373 579.612 427.473 570.259C487.462 559.913 543.671 565.352 601.491 577.655C627.411 583.166 652.104 590.684 678.216 595.846C705.849 601.307 736.189 600.775 764.622 597.742C796.888 594.305 827.774 587.762 858.205 581.109C888.879 574.378 921.489 564.903 954.565 562.685C1024.51 558.023 1097.25 581.043 1165.27 567.16" stroke="url(#paint57_linear_111_14)" stroke-miterlimit="10"/>
<path d="M-294.418 550C-218.393 552.699 -156.66 580.106 -78.3641 576.57C-16.6417 573.778 43.2764 561.49 105.516 561.9C158.703 562.256 211.84 571.961 264.389 576.028C320.293 580.352 373.754 579.925 427.59 570.089C488.187 559.01 544.101 565.009 602.397 577.752C628.195 583.39 652.959 590.879 679.142 595.98C706.714 601.377 736.921 600.742 765.193 597.579C797.438 593.971 828.203 587.233 858.542 580.489C889.175 573.68 921.775 564.221 954.932 561.922C1024.74 557.116 1097.57 581.546 1165.27 567.177" stroke="url(#paint58_linear_111_14)" stroke-miterlimit="10"/>
<path d="M-294.418 549C-218.241 551.678 -156.559 579.495 -78.0397 575.872C-16.3071 573.022 43.7427 560.89 106.063 561.436C159.23 561.9 212.114 572.006 264.642 576.143C320.576 580.561 374.118 579.859 427.61 569.339C488.795 557.311 544.263 563.872 603.056 577.269C628.793 583.129 653.618 590.76 679.821 595.968C707.373 601.441 737.317 600.751 765.568 597.409C830.838 589.678 889.317 565.473 955.216 560.592C1024.91 555.428 1097.92 581.737 1165.27 566.512" stroke="url(#paint59_linear_111_14)" stroke-miterlimit="10"/>
<path d="M-294.418 549C-218.117 551.606 -156.454 579.403 -77.8411 575.716C-16.0967 572.814 44.1576 560.998 106.449 561.628C159.628 562.177 212.28 572.567 264.789 576.747C320.745 581.202 374.472 580.302 427.66 569.287C489.384 556.499 544.236 563.395 603.588 577.241C629.113 583.182 653.999 591.055 680.264 596.025C708.161 601.297 737.204 600.869 765.759 597.402C831.143 589.458 889.299 565.392 955.433 560.191C1025.03 554.705 1098.36 582.436 1165.27 566.511" stroke="url(#paint60_linear_111_14)" stroke-miterlimit="10"/>
<path d="M-294.418 549C-218.04 551.543 -156.492 579.657 -77.8025 575.813C-16.0615 572.796 44.2705 561.113 106.681 561.797C159.866 562.382 212.312 573.27 264.809 577.572C320.762 582.156 374.769 581.103 427.64 569.47C489.838 555.774 543.915 562.955 603.832 577.407C658.569 590.601 703.666 605.621 765.65 597.888C831.202 589.707 889.081 565.713 955.444 560.065C1024.96 554.146 1098.67 583.535 1165.27 566.684" stroke="url(#paint61_linear_111_14)" stroke-miterlimit="10"/>
</g>
<rect x="737" y="492" width="585" height="355" fill="url(#paint62_linear_111_14)"/>
<path fill-rule="evenodd" clip-rule="evenodd" d="M-357 695.882L-311.355 705.76C-265.71 715.637 -171.884 735.392 -80.5942 735.392C10.6958 735.392 104.522 715.637 195.812 686.005C289.638 656.372 380.927 616.862 472.218 646.495C566.043 676.127 657.333 774.902 748.623 794.657C842.449 814.412 933.739 755.147 1025.03 765.024C1118.85 774.902 1210.15 853.921 1303.97 844.044C1395.26 834.166 1486.55 735.392 1580.38 695.882C1671.67 656.372 1762.96 676.127 1856.78 705.76C1948.07 735.392 2039.36 774.902 2133.19 853.921C2224.48 932.941 2318.3 1051.47 2409.59 1071.23C2500.88 1090.98 2594.71 1011.96 2640.35 972.451L2686 932.941V1170H2640.35C2594.71 1170 2500.88 1170 2409.59 1170C2318.3 1170 2224.48 1170 2133.19 1170C2039.36 1170 1948.07 1170 1856.78 1170C1762.96 1170 1671.67 1170 1580.38 1170C1486.55 1170 1395.26 1170 1303.97 1170C1210.15 1170 1118.85 1170 1025.03 1170C933.739 1170 842.449 1170 748.623 1170C657.333 1170 566.043 1170 472.218 1170C380.927 1170 289.638 1170 195.812 1170C104.522 1170 10.6958 1170 -80.5942 1170C-171.884 1170 -265.71 1170 -311.355 1170H-357V695.882Z" fill="url(#paint63_linear_111_14)"/>
<defs>
<filter id="filter0_f_111_14" x="-360.203" y="0.455078" width="1342.8" height="960.09" filterUnits="userSpaceOnUse" color-interpolation-filters="sRGB">
<feFlood flood-opacity="0" result="BackgroundImageFix"/>
<feBlend mode="normal" in="SourceGraphic" in2="BackgroundImageFix" result="shape"/>
<feGaussianBlur stdDeviation="196" result="effect1_foregroundBlur_111_14"/>
</filter>
<filter id="filter1_f_111_14" x="-603.35" y="231.76" width="934.752" height="497.164" filterUnits="userSpaceOnUse" color-interpolation-filters="sRGB">
<feFlood flood-opacity="0" result="BackgroundImageFix"/>
<feBlend mode="normal" in="SourceGraphic" in2="BackgroundImageFix" result="shape"/>
<feGaussianBlur stdDeviation="100" result="effect1_foregroundBlur_111_14"/>
</filter>
<filter id="filter2_f_111_14" x="-843.066" y="239.463" width="899.328" height="503.115" filterUnits="userSpaceOnUse" color-interpolation-filters="sRGB">
<feFlood flood-opacity="0" result="BackgroundImageFix"/>
<feBlend mode="normal" in="SourceGraphic" in2="BackgroundImageFix" result="shape"/>
<feGaussianBlur stdDeviation="100" result="effect1_foregroundBlur_111_14"/>
</filter>
<filter id="filter3_f_111_14" x="-760.104" y="74.5708" width="1492.86" height="854.124" filterUnits="userSpaceOnUse" color-interpolation-filters="sRGB">
<feFlood flood-opacity="0" result="BackgroundImageFix"/>
<feBlend mode="normal" in="SourceGraphic" in2="BackgroundImageFix" result="shape"/>
<feGaussianBlur stdDeviation="186.5" result="effect1_foregroundBlur_111_14"/>
</filter>
<linearGradient id="paint0_linear_111_14" x1="434.488" y1="760" x2="434.488" y2="805" gradientUnits="userSpaceOnUse">
<stop stop-color="#32344B"/>
<stop offset="0.307292" stop-color="#282941"/>
<stop offset="1" stop-color="#434566"/>
</linearGradient>
<linearGradient id="paint1_linear_111_14" x1="434.488" y1="747" x2="434.488" y2="802" gradientUnits="userSpaceOnUse">
<stop stop-color="#32344B"/>
<stop offset="0.307292" stop-color="#282941"/>
<stop offset="1" stop-color="#434566"/>
</linearGradient>
<linearGradient id="paint2_linear_111_14" x1="434.488" y1="735" x2="434.488" y2="800" gradientUnits="userSpaceOnUse">
<stop stop-color="#32344B"/>
<stop offset="0.307292" stop-color="#282941"/>
<stop offset="1" stop-color="#434566"/>
</linearGradient>
<linearGradient id="paint3_linear_111_14" x1="434.488" y1="723" x2="434.488" y2="797" gradientUnits="userSpaceOnUse">
<stop stop-color="#32344B"/>
<stop offset="0.307292" stop-color="#282941"/>
<stop offset="1" stop-color="#434566"/>
</linearGradient>
<linearGradient id="paint4_linear_111_14" x1="434.488" y1="713" x2="434.488" y2="794" gradientUnits="userSpaceOnUse">
<stop stop-color="#32344B"/>
<stop offset="0.307292" stop-color="#282941"/>
<stop offset="1" stop-color="#434566"/>
</linearGradient>
<linearGradient id="paint5_linear_111_14" x1="434.488" y1="703" x2="434.488" y2="790" gradientUnits="userSpaceOnUse">
<stop stop-color="#32344B"/>
<stop offset="0.307292" stop-color="#282941"/>
<stop offset="1" stop-color="#434566"/>
</linearGradient>
<linearGradient id="paint6_linear_111_14" x1="434.488" y1="695" x2="434.488" y2="784" gradientUnits="userSpaceOnUse">
<stop stop-color="#32344B"/>
<stop offset="0.307292" stop-color="#282941"/>
<stop offset="1" stop-color="#434566"/>
</linearGradient>
<linearGradient id="paint7_linear_111_14" x1="434.488" y1="687" x2="434.488" y2="778" gradientUnits="userSpaceOnUse">
<stop stop-color="#32344B"/>
<stop offset="0.307292" stop-color="#282941"/>
<stop offset="1" stop-color="#434566"/>
</linearGradient>
<linearGradient id="paint8_linear_111_14" x1="434.488" y1="680" x2="434.488" y2="772" gradientUnits="userSpaceOnUse">
<stop stop-color="#32344B"/>
<stop offset="0.307292" stop-color="#282941"/>
<stop offset="1" stop-color="#434566"/>
</linearGradient>
<linearGradient id="paint9_linear_111_14" x1="434.488" y1="673" x2="434.488" y2="766" gradientUnits="userSpaceOnUse">
<stop stop-color="#32344B"/>
<stop offset="0.307292" stop-color="#282941"/>
<stop offset="1" stop-color="#434566"/>
</linearGradient>
<linearGradient id="paint10_linear_111_14" x1="434.488" y1="667" x2="434.488" y2="760" gradientUnits="userSpaceOnUse">
<stop stop-color="#32344B"/>
<stop offset="0.307292" stop-color="#282941"/>
<stop offset="1" stop-color="#434566"/>
</linearGradient>
<linearGradient id="paint11_linear_111_14" x1="434.488" y1="661" x2="434.488" y2="754" gradientUnits="userSpaceOnUse">
<stop stop-color="#32344B"/>
<stop offset="0.307292" stop-color="#282941"/>
<stop offset="1" stop-color="#434566"/>
</linearGradient>
<linearGradient id="paint12_linear_111_14" x1="434.488" y1="656" x2="434.488" y2="748" gradientUnits="userSpaceOnUse">
<stop stop-color="#32344B"/>
<stop offset="0.307292" stop-color="#282941"/>
<stop offset="1" stop-color="#434566"/>
</linearGradient>
<linearGradient id="paint13_linear_111_14" x1="434.488" y1="652" x2="434.488" y2="743" gradientUnits="userSpaceOnUse">
<stop stop-color="#32344B"/>
<stop offset="0.307292" stop-color="#282941"/>
<stop offset="1" stop-color="#434566"/>
</linearGradient>
<linearGradient id="paint14_linear_111_14" x1="434.488" y1="648" x2="434.488" y2="738" gradientUnits="userSpaceOnUse">
<stop stop-color="#32344B"/>
<stop offset="0.307292" stop-color="#282941"/>
<stop offset="1" stop-color="#434566"/>
</linearGradient>
<linearGradient id="paint15_linear_111_14" x1="434.488" y1="644" x2="434.488" y2="733" gradientUnits="userSpaceOnUse">
<stop stop-color="#32344B"/>
<stop offset="0.307292" stop-color="#282941"/>
<stop offset="1" stop-color="#434566"/>
</linearGradient>
<linearGradient id="paint16_linear_111_14" x1="434.488" y1="640" x2="434.488" y2="728" gradientUnits="userSpaceOnUse">
<stop stop-color="#32344B"/>
<stop offset="0.307292" stop-color="#282941"/>
<stop offset="1" stop-color="#434566"/>
</linearGradient>
<linearGradient id="paint17_linear_111_14" x1="434.488" y1="637" x2="434.488" y2="723" gradientUnits="userSpaceOnUse">
<stop stop-color="#32344B"/>
<stop offset="0.307292" stop-color="#282941"/>
<stop offset="1" stop-color="#434566"/>
</linearGradient>
<linearGradient id="paint18_linear_111_14" x1="434.488" y1="633" x2="434.488" y2="718" gradientUnits="userSpaceOnUse">
<stop stop-color="#32344B"/>
<stop offset="0.307292" stop-color="#282941"/>
<stop offset="1" stop-color="#434566"/>
</linearGradient>
<linearGradient id="paint19_linear_111_14" x1="434.488" y1="631" x2="434.488" y2="713" gradientUnits="userSpaceOnUse">
<stop stop-color="#32344B"/>
<stop offset="0.307292" stop-color="#282941"/>
<stop offset="1" stop-color="#434566"/>
</linearGradient>
<linearGradient id="paint20_linear_111_14" x1="434.488" y1="627" x2="434.488" y2="709" gradientUnits="userSpaceOnUse">
<stop stop-color="#32344B"/>
<stop offset="0.307292" stop-color="#282941"/>
<stop offset="1" stop-color="#434566"/>
</linearGradient>
<linearGradient id="paint21_linear_111_14" x1="434.488" y1="624" x2="434.488" y2="704" gradientUnits="userSpaceOnUse">
<stop stop-color="#32344B"/>
<stop offset="0.307292" stop-color="#282941"/>
<stop offset="1" stop-color="#434566"/>
</linearGradient>
<linearGradient id="paint22_linear_111_14" x1="434.488" y1="620" x2="434.488" y2="700" gradientUnits="userSpaceOnUse">
<stop stop-color="#32344B"/>
<stop offset="0.307292" stop-color="#282941"/>
<stop offset="1" stop-color="#434566"/>
</linearGradient>
<linearGradient id="paint23_linear_111_14" x1="434.488" y1="617" x2="434.488" y2="696" gradientUnits="userSpaceOnUse">
<stop stop-color="#32344B"/>
<stop offset="0.307292" stop-color="#282941"/>
<stop offset="1" stop-color="#434566"/>
</linearGradient>
<linearGradient id="paint24_linear_111_14" x1="434.488" y1="613" x2="434.488" y2="691" gradientUnits="userSpaceOnUse">
<stop stop-color="#32344B"/>
<stop offset="0.307292" stop-color="#282941"/>
<stop offset="1" stop-color="#434566"/>
</linearGradient>
<linearGradient id="paint25_linear_111_14" x1="434.488" y1="608" x2="434.488" y2="687" gradientUnits="userSpaceOnUse">
<stop stop-color="#32344B"/>
<stop offset="0.307292" stop-color="#282941"/>
<stop offset="1" stop-color="#434566"/>
</linearGradient>
<linearGradient id="paint26_linear_111_14" x1="434.957" y1="604" x2="434.957" y2="682" gradientUnits="userSpaceOnUse">
<stop stop-color="#32344B"/>
<stop offset="0.307292" stop-color="#282941"/>
<stop offset="1" stop-color="#434566"/>
</linearGradient>
<linearGradient id="paint27_linear_111_14" x1="434.957" y1="601" x2="434.957" y2="678" gradientUnits="userSpaceOnUse">
<stop stop-color="#32344B"/>
<stop offset="0.307292" stop-color="#282941"/>
<stop offset="1" stop-color="#434566"/>
</linearGradient>
<linearGradient id="paint28_linear_111_14" x1="435.425" y1="597" x2="435.425" y2="673" gradientUnits="userSpaceOnUse">
<stop stop-color="#32344B"/>
<stop offset="0.307292" stop-color="#282941"/>
<stop offset="1" stop-color="#434566"/>
</linearGradient>
<linearGradient id="paint29_linear_111_14" x1="435.425" y1="594" x2="435.425" y2="669" gradientUnits="userSpaceOnUse">
<stop stop-color="#32344B"/>
<stop offset="0.307292" stop-color="#282941"/>
<stop offset="1" stop-color="#434566"/>
</linearGradient>
<linearGradient id="paint30_linear_111_14" x1="435.425" y1="591" x2="435.425" y2="664" gradientUnits="userSpaceOnUse">
<stop stop-color="#32344B"/>
<stop offset="0.307292" stop-color="#282941"/>
<stop offset="1" stop-color="#434566"/>
</linearGradient>
<linearGradient id="paint31_linear_111_14" x1="435.425" y1="588" x2="435.425" y2="659" gradientUnits="userSpaceOnUse">
<stop stop-color="#32344B"/>
<stop offset="0.307292" stop-color="#282941"/>
<stop offset="1" stop-color="#434566"/>
</linearGradient>
<linearGradient id="paint32_linear_111_14" x1="435.425" y1="585" x2="435.425" y2="655" gradientUnits="userSpaceOnUse">
<stop stop-color="#32344B"/>
<stop offset="0.307292" stop-color="#282941"/>
<stop offset="1" stop-color="#434566"/>
</linearGradient>
<linearGradient id="paint33_linear_111_14" x1="435.425" y1="583" x2="435.425" y2="650" gradientUnits="userSpaceOnUse">
<stop stop-color="#32344B"/>
<stop offset="0.307292" stop-color="#282941"/>
<stop offset="1" stop-color="#434566"/>
</linearGradient>
<linearGradient id="paint34_linear_111_14" x1="435.425" y1="580" x2="435.425" y2="645" gradientUnits="userSpaceOnUse">
<stop stop-color="#32344B"/>
<stop offset="0.307292" stop-color="#282941"/>
<stop offset="1" stop-color="#434566"/>
</linearGradient>
<linearGradient id="paint35_linear_111_14" x1="435.425" y1="578" x2="435.425" y2="641" gradientUnits="userSpaceOnUse">
<stop stop-color="#32344B"/>
<stop offset="0.307292" stop-color="#282941"/>
<stop offset="1" stop-color="#434566"/>
</linearGradient>
<linearGradient id="paint36_linear_111_14" x1="435.425" y1="576" x2="435.425" y2="636" gradientUnits="userSpaceOnUse">
<stop stop-color="#32344B"/>
<stop offset="0.307292" stop-color="#282941"/>
<stop offset="1" stop-color="#434566"/>
</linearGradient>
<linearGradient id="paint37_linear_111_14" x1="435.425" y1="574" x2="435.425" y2="632" gradientUnits="userSpaceOnUse">
<stop stop-color="#32344B"/>
<stop offset="0.307292" stop-color="#282941"/>
<stop offset="1" stop-color="#434566"/>
</linearGradient>
<linearGradient id="paint38_linear_111_14" x1="435.425" y1="573" x2="435.425" y2="628" gradientUnits="userSpaceOnUse">
<stop stop-color="#32344B"/>
<stop offset="0.307292" stop-color="#282941"/>
<stop offset="1" stop-color="#434566"/>
</linearGradient>
<linearGradient id="paint39_linear_111_14" x1="435.425" y1="571" x2="435.425" y2="624" gradientUnits="userSpaceOnUse">
<stop stop-color="#32344B"/>
<stop offset="0.307292" stop-color="#282941"/>
<stop offset="1" stop-color="#434566"/>
</linearGradient>
<linearGradient id="paint40_linear_111_14" x1="435.425" y1="570" x2="435.425" y2="620" gradientUnits="userSpaceOnUse">
<stop stop-color="#32344B"/>
<stop offset="0.307292" stop-color="#282941"/>
<stop offset="1" stop-color="#434566"/>
</linearGradient>
<linearGradient id="paint41_linear_111_14" x1="435.425" y1="569" x2="435.425" y2="617" gradientUnits="userSpaceOnUse">
<stop stop-color="#32344B"/>
<stop offset="0.307292" stop-color="#282941"/>
<stop offset="1" stop-color="#434566"/>
</linearGradient>
<linearGradient id="paint42_linear_111_14" x1="435.425" y1="568" x2="435.425" y2="614" gradientUnits="userSpaceOnUse">
<stop stop-color="#32344B"/>
<stop offset="0.307292" stop-color="#282941"/>
<stop offset="1" stop-color="#434566"/>
</linearGradient>
<linearGradient id="paint43_linear_111_14" x1="435.425" y1="567" x2="435.425" y2="611" gradientUnits="userSpaceOnUse">
<stop stop-color="#32344B"/>
<stop offset="0.307292" stop-color="#282941"/>
<stop offset="1" stop-color="#434566"/>
</linearGradient>
<linearGradient id="paint44_linear_111_14" x1="435.425" y1="566" x2="435.425" y2="609" gradientUnits="userSpaceOnUse">
<stop stop-color="#32344B"/>
<stop offset="0.307292" stop-color="#282941"/>
<stop offset="1" stop-color="#434566"/>
</linearGradient>
<linearGradient id="paint45_linear_111_14" x1="435.425" y1="565" x2="435.425" y2="607" gradientUnits="userSpaceOnUse">
<stop stop-color="#32344B"/>
<stop offset="0.307292" stop-color="#282941"/>
<stop offset="1" stop-color="#434566"/>
</linearGradient>
<linearGradient id="paint46_linear_111_14" x1="435.425" y1="565" x2="435.425" y2="606" gradientUnits="userSpaceOnUse">
<stop stop-color="#32344B"/>
<stop offset="0.307292" stop-color="#282941"/>
<stop offset="1" stop-color="#434566"/>
</linearGradient>
<linearGradient id="paint47_linear_111_14" x1="435.425" y1="564" x2="435.425" y2="604" gradientUnits="userSpaceOnUse">
<stop stop-color="#32344B"/>
<stop offset="0.307292" stop-color="#282941"/>
<stop offset="1" stop-color="#434566"/>
</linearGradient>
<linearGradient id="paint48_linear_111_14" x1="435.425" y1="563" x2="435.425" y2="603" gradientUnits="userSpaceOnUse">
<stop stop-color="#32344B"/>
<stop offset="0.307292" stop-color="#282941"/>
<stop offset="1" stop-color="#434566"/>
</linearGradient>
<linearGradient id="paint49_linear_111_14" x1="435.425" y1="561" x2="435.425" y2="602" gradientUnits="userSpaceOnUse">
<stop stop-color="#32344B"/>
<stop offset="0.307292" stop-color="#282941"/>
<stop offset="1" stop-color="#434566"/>
</linearGradient>
<linearGradient id="paint50_linear_111_14" x1="435.425" y1="559" x2="435.425" y2="601" gradientUnits="userSpaceOnUse">
<stop stop-color="#32344B"/>
<stop offset="0.307292" stop-color="#282941"/>
<stop offset="1" stop-color="#434566"/>
</linearGradient>
<linearGradient id="paint51_linear_111_14" x1="435.425" y1="557" x2="435.425" y2="601" gradientUnits="userSpaceOnUse">
<stop stop-color="#32344B"/>
<stop offset="0.307292" stop-color="#282941"/>
<stop offset="1" stop-color="#434566"/>
</linearGradient>
<linearGradient id="paint52_linear_111_14" x1="435.425" y1="556" x2="435.425" y2="601" gradientUnits="userSpaceOnUse">
<stop stop-color="#32344B"/>
<stop offset="0.307292" stop-color="#282941"/>
<stop offset="1" stop-color="#434566"/>
</linearGradient>
<linearGradient id="paint53_linear_111_14" x1="435.425" y1="554" x2="435.425" y2="600" gradientUnits="userSpaceOnUse">
<stop stop-color="#32344B"/>
<stop offset="0.307292" stop-color="#282941"/>
<stop offset="1" stop-color="#434566"/>
</linearGradient>
<linearGradient id="paint54_linear_111_14" x1="435.425" y1="553" x2="435.425" y2="600" gradientUnits="userSpaceOnUse">
<stop stop-color="#32344B"/>
<stop offset="0.307292" stop-color="#282941"/>
<stop offset="1" stop-color="#434566"/>
</linearGradient>
<linearGradient id="paint55_linear_111_14" x1="435.425" y1="552" x2="435.425" y2="600" gradientUnits="userSpaceOnUse">
<stop stop-color="#32344B"/>
<stop offset="0.307292" stop-color="#282941"/>
<stop offset="1" stop-color="#434566"/>
</linearGradient>
<linearGradient id="paint56_linear_111_14" x1="435.425" y1="551" x2="435.425" y2="600" gradientUnits="userSpaceOnUse">
<stop stop-color="#32344B"/>
<stop offset="0.307292" stop-color="#282941"/>
<stop offset="1" stop-color="#434566"/>
</linearGradient>
<linearGradient id="paint57_linear_111_14" x1="435.425" y1="550" x2="435.425" y2="600" gradientUnits="userSpaceOnUse">
<stop stop-color="#32344B"/>
<stop offset="0.307292" stop-color="#282941"/>
<stop offset="1" stop-color="#434566"/>
</linearGradient>
<linearGradient id="paint58_linear_111_14" x1="435.425" y1="550" x2="435.425" y2="600" gradientUnits="userSpaceOnUse">
<stop stop-color="#32344B"/>
<stop offset="0.307292" stop-color="#282941"/>
<stop offset="1" stop-color="#434566"/>
</linearGradient>
<linearGradient id="paint59_linear_111_14" x1="435.425" y1="549" x2="435.425" y2="600" gradientUnits="userSpaceOnUse">
<stop stop-color="#32344B"/>
<stop offset="0.307292" stop-color="#282941"/>
<stop offset="1" stop-color="#434566"/>
</linearGradient>
<linearGradient id="paint60_linear_111_14" x1="435.425" y1="549" x2="435.425" y2="600" gradientUnits="userSpaceOnUse">
<stop stop-color="#32344B"/>
<stop offset="0.307292" stop-color="#282941"/>
<stop offset="1" stop-color="#434566"/>
</linearGradient>
<linearGradient id="paint61_linear_111_14" x1="435.425" y1="549" x2="435.425" y2="600" gradientUnits="userSpaceOnUse">
<stop stop-color="#32344B"/>
<stop offset="0.307292" stop-color="#282941"/>
<stop offset="1" stop-color="#434566"/>
</linearGradient>
<linearGradient id="paint62_linear_111_14" x1="737" y1="688" x2="1321.99" y2="691.612" gradientUnits="userSpaceOnUse">
<stop stop-color="#181928" stop-opacity="0"/>
<stop offset="0.333333" stop-color="#181928"/>
<stop offset="1" stop-color="#181928"/>
</linearGradient>
<linearGradient id="paint63_linear_111_14" x1="1164.5" y1="694.509" x2="1164.5" y2="1117" gradientUnits="userSpaceOnUse">
<stop stop-color="#151620"/>
<stop offset="1" stop-color="#181928"/>
</linearGradient>
</defs>
</svg>
