<svg width="22" height="21" viewBox="0 0 22 21" fill="none" xmlns="http://www.w3.org/2000/svg">
<path fill-rule="evenodd" clip-rule="evenodd" d="M7.60226 9.10344L11.0009 5.70484L14.4024 9.10635L16.3798 7.12893L11.0009 1.75L5.62484 7.12602L7.60226 9.10344ZM2.25 10.5006L4.2269 8.52371L6.2038 10.5006L4.2269 12.4775L2.25 10.5006ZM11.0008 15.2978L7.60224 11.8992L5.62191 13.8737L5.62482 13.8766L11.0008 19.2526L16.3798 13.8737L14.4023 11.8963L11.0008 15.2978ZM15.7962 10.502L17.7731 8.5251L19.75 10.502L17.7731 12.4789L15.7962 10.502ZM11.0009 8.49477L13.0074 10.5013L11.0009 12.5108L8.99432 10.5042V10.4984L9.3467 10.146L9.51853 9.97711L11.0009 8.49477Z" fill="white"/>
</svg>
