<svg width="17" height="19" viewBox="0 0 17 19" fill="none" xmlns="http://www.w3.org/2000/svg">
<g filter="url(#filter0_b_164_103)">
<path d="M14.8041 0.251271C14.8041 0.251271 15.302 0.491297 15.6916 0.572058C15.7227 0.578231 15.7549 0.576237 15.7849 0.566295C15.8148 0.556352 15.8413 0.53884 15.8614 0.51566C15.9482 0.418206 16.0693 0.251271 15.9458 0.191264C15.9284 0.182698 15.9099 0.173216 15.8904 0.163189C15.7105 0.0707642 15.4406 -0.0679074 15.0349 0.0383156C14.5852 0.156073 14.7345 0.230517 14.8041 0.251271Z" fill="white"/>
<path d="M12.1062 0.575677C12.1062 0.575677 12.1448 0.461529 12.2406 0.461529C12.2685 0.461529 12.3103 0.457353 12.3576 0.452635C12.4733 0.441089 12.6216 0.426296 12.6761 0.461529C12.7528 0.511159 12.719 0.664559 12.6284 0.66501C12.5378 0.665461 12.0675 0.641549 12.1062 0.575677Z" fill="white"/>
<path d="M0.505587 6.51404C0.458373 6.81182 0.725917 6.79738 0.725917 6.79738C0.776659 6.80399 0.828755 6.74669 0.892073 6.67704C0.928137 6.63737 0.967846 6.5937 1.01301 6.55555C1.10932 6.47421 1.13482 6.39315 1.18385 6.23733C1.19818 6.19176 1.21453 6.13979 1.23525 6.07956C1.32682 5.81336 1.68688 5.74523 1.74554 5.74523C1.8042 5.74523 1.71883 5.97173 1.47704 6.23386C1.409 6.30763 1.3334 6.37764 1.25741 6.44803C1.06335 6.62776 0.866675 6.80992 0.786484 7.06312C0.674888 7.41549 0.864697 7.58243 1.00872 7.53911C1.07543 7.51905 1.10807 7.4477 1.15265 7.35024C1.20432 7.23728 1.27204 7.08924 1.42744 6.94537C1.58026 6.80389 1.66144 6.67046 1.73385 6.55145C1.79861 6.44502 1.85635 6.35012 1.95204 6.27131C2.10938 6.13118 2.25303 5.97791 2.38126 5.81336C2.92624 4.71619 4.67256 3.33782 5.18276 2.93512C5.24805 2.88358 5.2931 2.84803 5.31279 2.83109C5.37739 2.77552 5.46813 2.72213 5.55662 2.67008C5.70594 2.58223 5.84883 2.49817 5.84883 2.41375C5.84883 2.2793 5.77062 2.20485 5.64376 2.21974C5.51691 2.23463 4.50873 2.87575 3.75236 3.45732C2.99599 4.03889 2.25488 5.14382 2.13422 5.38204C2.01356 5.62026 1.97112 5.45829 1.97112 5.2327C1.97112 5.0936 2.01318 5.01214 2.0565 4.92824C2.08344 4.87607 2.11087 4.82295 2.12897 4.75445C2.17619 4.57579 1.89243 4.71024 1.81374 4.81446C1.7897 4.84629 1.74359 4.88369 1.69114 4.92622C1.57188 5.02294 1.41981 5.14627 1.41981 5.29135C1.41981 5.50025 1.30965 5.60492 1.10458 5.73892C0.899511 5.87292 0.552801 6.21626 0.505587 6.51404Z" fill="white"/>
<path d="M6.02332 2.05235C5.99868 2.064 5.97725 2.08091 5.9607 2.10173C5.94414 2.12256 5.93293 2.14673 5.92794 2.17236C5.92462 2.18839 5.92477 2.20489 5.92837 2.22086C5.93198 2.23684 5.93897 2.25195 5.94892 2.2653C6.00996 2.34516 6.16973 2.2829 6.27274 2.19402C6.37575 2.10513 7.0148 1.73652 7.0148 1.73652C7.0148 1.73652 6.31042 1.91293 6.02332 2.05235Z" fill="white"/>
<path d="M1.16335 7.9849C1.31072 8.13018 1.4061 7.9849 1.4061 7.9849C1.59773 7.8514 1.83662 7.48563 1.98841 7.2532C2.0372 7.17849 2.077 7.11756 2.10333 7.08255C2.21159 6.93862 2.83538 6.11974 3.0333 5.88964C3.07817 5.83746 3.10417 5.79011 3.13549 5.73307C3.24229 5.53855 3.41098 5.23131 4.60136 4.23562C6.14081 2.94796 7.87198 1.61068 9.9985 1.54255C12.125 1.47442 14.5768 2.92405 14.5768 2.92405C14.6115 2.91057 14.6429 2.8906 14.6692 2.86534C14.6955 2.84009 14.7162 2.81007 14.7299 2.77709C14.7437 2.7441 14.7503 2.70882 14.7493 2.67338C14.7483 2.63793 14.7397 2.60303 14.7242 2.57078C12.3296 1.15634 10.3719 1.01332 9.41811 1.18973C8.4643 1.36614 7.56247 1.83311 6.90768 2.18548C6.27583 2.5255 5.0547 3.45032 4.31557 4.0101L4.23701 4.06959C3.50877 4.62093 2.74811 5.51065 2.56164 5.8003C2.37517 6.08996 1.68222 7.12721 1.44663 7.33385C1.21104 7.54049 1.01599 7.83962 1.16335 7.9849Z" fill="white"/>
<path d="M15.335 1.39138C12.7111 0.43218 11.0243 0.66228 10.5345 0.766051C10.5195 0.769323 10.5059 0.777098 10.496 0.788219C10.486 0.79934 10.4801 0.81321 10.4791 0.827765C10.4782 0.84232 10.4822 0.856781 10.4906 0.868993C10.499 0.881205 10.5114 0.890516 10.5259 0.895538C10.6643 0.936103 10.8072 0.961683 10.9518 0.971787C11.1753 0.993166 11.3904 1.02334 11.5924 1.05167C11.9019 1.09508 12.1805 1.13415 12.4111 1.1306C12.7921 1.12474 13.7374 1.22806 14.3082 1.43018C14.8791 1.63231 15.119 1.71939 15.119 1.71939C15.119 1.71939 15.2401 1.73021 15.3326 1.59937C15.4251 1.46853 15.335 1.39138 15.335 1.39138Z" fill="white"/>
<path d="M14.8333 2.29689C15.1619 2.27523 15.0636 1.94227 15.0636 1.94227C15.0636 1.94227 13.8184 1.4744 13.155 1.3043C12.4917 1.13421 12.1383 1.43469 12.6529 1.49515C12.9104 1.52541 13.374 1.73161 13.814 1.92735C14.2533 2.12274 14.6691 2.30771 14.8333 2.29689Z" fill="white"/>
<path d="M13.2661 0.370845C13.2519 0.375818 13.2396 0.384698 13.2308 0.396341C13.222 0.407984 13.217 0.421856 13.2166 0.436173C13.2162 0.45049 13.2204 0.464595 13.2285 0.476673C13.2366 0.488751 13.2484 0.498248 13.2623 0.503942C13.412 0.564851 13.6529 0.650575 13.847 0.665012C14.1527 0.687571 14.9811 0.935718 15.3759 1.13018C15.6287 1.2529 15.7575 0.818863 15.5944 0.76382C15.5067 0.734574 15.38 0.689675 15.2389 0.639677C14.9032 0.520755 14.4861 0.372982 14.3196 0.33836C14.1202 0.296852 13.579 0.267074 13.2661 0.370845Z" fill="white"/>
<path d="M13.9736 3.28145C13.2637 2.89016 11.5293 1.93406 8.72378 2.29735C8.47801 2.33047 8.26794 2.4898 8.10972 2.60979C8.03952 2.66303 7.97953 2.70853 7.93116 2.73183C7.61332 2.88045 7.30701 3.05022 7.01455 3.23985C6.42383 3.63714 5.87635 4.08903 5.3802 4.58887C4.88231 5.10051 4.26662 6.18378 4.11926 6.45043C3.9719 6.71707 3.42202 7.31308 3.26083 7.46557C3.09964 7.61807 2.72527 8.40402 2.46917 8.96348C2.21307 9.52294 1.89068 9.44534 1.94457 9.02664C1.99846 8.60795 2.89695 7.42632 3.11156 7.18675C3.32617 6.94717 4.455 5.39693 4.50842 5.26744C4.56183 5.13795 4.40063 5.10502 4.25327 5.26744C4.18695 5.34054 4.00648 5.59263 3.80807 5.86976C3.5656 6.20845 3.29633 6.58457 3.17594 6.71707C2.95704 6.958 1.98702 8.46448 1.98702 8.46448C1.98702 8.46448 1.85348 8.80196 1.64841 8.69232C1.44334 8.58269 1.5063 8.33048 1.74666 8.04759C1.84964 7.92639 2.24711 7.3819 2.67836 6.79113C3.25364 6.00306 3.88911 5.13255 3.9657 5.07479C4.01271 5.03933 4.09941 5.00465 4.20594 4.96204C4.40304 4.8832 4.66804 4.7772 4.87516 4.58887C4.98817 4.48611 5.10231 4.35845 5.22048 4.22629C5.43592 3.98534 5.66472 3.72943 5.92435 3.5823C6.00935 3.53412 6.12422 3.43995 6.27156 3.31914C6.8211 2.86859 7.82237 2.04768 9.41052 1.86196C11.4245 1.62645 13.5906 2.46067 14.4819 3.16045C14.4819 3.16045 14.5439 3.39641 14.3212 3.43882C14.275 3.44762 14.1594 3.38389 13.9736 3.28145Z" fill="white"/>
<path d="M4.84816 5.669C4.84816 5.669 5.69657 4.45082 6.61271 3.85707C6.96362 3.62964 7.25562 3.42962 7.49844 3.26329C7.88953 2.99538 8.15303 2.81489 8.32957 2.74808C8.34607 2.74183 8.36486 2.73439 8.38604 2.72599L8.3864 2.72585C8.73271 2.58857 9.71603 2.19877 11.7986 2.64882C14.0095 3.12662 14.2761 3.81196 14.1717 3.94731C14.0808 4.06509 13.81 3.92322 13.4069 3.71196C13.3468 3.68045 13.2837 3.6474 13.2178 3.61344C12.7104 3.35175 11.759 2.95517 10.9964 2.97322C10.2338 2.99126 8.71872 3.48711 8.62382 3.57734C8.52891 3.66758 8.5189 3.41537 8.77595 3.36123C8.91236 3.3325 9.02486 3.26311 9.12457 3.20161C9.21277 3.14722 9.29096 3.09899 9.36683 3.09052C9.52851 3.07248 9.77697 3.01834 9.77697 2.89246C9.77697 2.76658 9.23378 2.78417 8.95717 2.89246C8.74082 2.97715 8.04074 3.33731 7.65038 3.53813C7.54167 3.59406 7.45696 3.63764 7.41343 3.65946C7.37044 3.68101 7.32478 3.70163 7.27912 3.72227C7.11253 3.79753 6.94581 3.87285 6.90839 3.99288C6.8607 4.14583 6.5364 4.51038 6.37473 4.58978C6.21306 4.66919 5.39278 5.28234 5.30742 5.42672C5.22205 5.57109 5.10569 5.68389 4.84816 5.669Z" fill="white"/>
<path d="M7.10112 4.52345C6.64329 4.8501 6.53551 4.69896 6.53551 4.69896C6.54479 4.59878 6.99181 4.33304 7.27454 4.16497C7.38391 4.09995 7.46881 4.04948 7.49409 4.02896C7.5847 3.95542 7.69725 4.12326 7.65815 4.12326C7.63769 4.12326 7.6115 4.14337 7.52566 4.2093C7.44738 4.26943 7.31949 4.36765 7.10112 4.52345Z" fill="white"/>
<path d="M7.80739 4.43008C7.80739 4.43008 7.67958 4.39444 7.92948 4.2275C8.17938 4.06057 9.83233 3.11716 11.0246 3.17671C12.2169 3.23627 13.5999 3.90491 13.8383 4.10207C14.0768 4.29924 13.908 4.69266 13.8383 4.66875C13.8277 4.66508 13.7837 4.63697 13.7133 4.5919C13.3245 4.34321 12.1287 3.5782 11.2583 3.55299C10.2301 3.52321 9.19519 3.89318 8.75977 4.1499L8.70073 4.18477C8.31023 4.41565 8.16068 4.50407 7.80739 4.43008Z" fill="white"/>
<path d="M9.11283 4.35168C9.12163 4.36037 9.13293 4.36644 9.14533 4.36914C9.57146 4.46602 9.84781 4.39165 10.1615 4.30722C10.4643 4.22573 10.8018 4.13488 11.3424 4.17965C12.1919 4.24963 12.8017 4.82286 13.1498 5.15012C13.2752 5.26803 13.3667 5.35401 13.4232 5.37301C13.6363 5.44475 13.6931 5.08606 13.6616 4.93131C13.6301 4.77655 13.0245 4.10791 11.5423 3.80968C10.3438 3.5683 9.42957 4.06008 9.12339 4.2577C9.11285 4.26444 9.10462 4.27395 9.09971 4.28506C9.0948 4.29617 9.09343 4.30839 9.09576 4.32022C9.09809 4.33206 9.10402 4.34299 9.11283 4.35168Z" fill="white"/>
<path d="M10.665 4.62136L10.5358 4.58121C10.5322 4.58006 10.5291 4.57788 10.5268 4.57496C10.5246 4.57205 10.5234 4.56855 10.5234 4.56497C10.5234 4.56138 10.5246 4.55788 10.5268 4.55497C10.5291 4.55206 10.5322 4.54987 10.5358 4.54872C10.7265 4.50361 11.3494 4.38901 11.9131 4.59384C12.411 4.77431 12.813 5.11811 12.9894 5.2864C12.9949 5.29185 12.9982 5.29884 12.999 5.30629C12.9998 5.31373 12.9979 5.32121 12.9937 5.32756C12.9895 5.3339 12.9832 5.33875 12.9758 5.34134C12.9684 5.34393 12.9603 5.34413 12.9527 5.34189L10.665 4.62136Z" fill="white"/>
<path d="M2.45464 9.94299C2.63444 10.0914 2.70263 9.89787 2.70263 9.89787C2.89513 9.5879 2.9554 9.38699 3.01485 9.18882C3.08 8.97165 3.14417 8.75776 3.38032 8.40719C3.83195 7.73674 3.72035 7.30812 3.71415 7.42091C3.70795 7.53371 3.26729 8.03542 3.14329 8.15272C3.0193 8.27003 2.52284 9.25043 2.45464 9.4088L2.44424 9.4328C2.37612 9.58947 2.28375 9.8019 2.45464 9.94299Z" fill="white"/>
<path d="M3.09365 10.5494C3.09365 10.5494 3.02545 10.6847 2.90765 10.5494C2.78986 10.414 2.90098 10.0982 3.04405 9.77469C3.11084 9.62366 3.18959 9.3859 3.26409 9.16098C3.34916 8.90414 3.42868 8.66404 3.47851 8.589C3.57198 8.44823 3.58391 8.76496 3.58391 8.8597C3.58391 8.86864 3.58418 8.88126 3.58453 8.89717C3.58788 9.05008 3.59784 9.50486 3.43463 9.8929C3.34319 10.1214 3.22901 10.3412 3.09365 10.5494Z" fill="white"/>
<path d="M3.36657 11.1422C3.52824 11.3944 3.66463 11.1833 3.66463 11.1833C3.75763 11.0777 3.78863 10.8454 3.78863 10.7736C3.78863 10.7374 3.76493 10.6733 3.73747 10.5989C3.71054 10.526 3.67998 10.4433 3.66463 10.3676C3.63363 10.2146 3.57784 10.0973 3.54064 10.1442C3.5208 10.1692 3.48618 10.2672 3.45095 10.3668C3.42012 10.454 3.38882 10.5425 3.36657 10.5846C3.31238 10.6685 3.28371 10.765 3.28371 10.8634C3.28371 10.9618 3.31238 11.0583 3.36657 11.1422Z" fill="white"/>
<path d="M3.97454 11.4355C3.97454 11.4355 3.92685 11.2902 3.88774 11.2659C3.84864 11.2415 3.74086 11.3827 3.73084 11.4883C3.72529 11.5468 3.75826 11.5838 3.79152 11.6212C3.81827 11.6512 3.84522 11.6815 3.85245 11.7234C3.86867 11.8172 3.94783 11.6999 3.97454 11.6002C3.99014 11.5463 3.99014 11.4894 3.97454 11.4355Z" fill="white"/>
<path d="M5.09384 6.74008C4.45431 7.44301 4.32268 8.32371 4.32268 8.32371C4.32268 8.32371 4.4319 8.48433 4.48626 8.19963C4.54063 7.91494 4.94504 7.49715 5.01086 7.48813L5.01243 7.48791C5.03097 7.48537 5.04325 7.48368 5.04727 7.48835C5.05514 7.49751 5.03128 7.53107 4.96067 7.63041C4.9428 7.65555 4.92193 7.6849 4.89783 7.71913C4.72853 7.95961 4.13669 9.40067 4.11761 9.78327C4.09854 10.1659 4.2211 10.1749 4.27738 10.1749C4.33365 10.1749 4.90785 8.93821 4.91691 8.76902C4.92351 8.64582 5.12912 8.21137 5.27724 7.8984C5.33252 7.7816 5.37981 7.68168 5.40574 7.62123C5.49078 7.42291 5.44654 7.37379 5.41601 7.33989C5.4123 7.33577 5.40879 7.33187 5.40574 7.32796C5.3935 7.31226 5.35447 7.31346 5.31392 7.31471C5.26122 7.31633 5.20595 7.31803 5.20353 7.28285C5.20135 7.25131 5.30376 7.13982 5.41157 7.02245C5.51664 6.90805 5.62685 6.78806 5.65039 6.73106C5.66962 6.68449 5.73605 6.59297 5.81091 6.48984C5.92173 6.33718 6.05101 6.15909 6.07293 6.06377C6.10965 5.90405 6.02524 5.92165 6.02524 5.92165C6.02524 5.92165 5.73337 6.03715 5.09384 6.74008Z" fill="white"/>
<path d="M5.8488 8.23482C5.8488 8.23482 5.69572 8.57862 5.37619 8.55335C5.15693 8.53602 5.31493 8.17877 5.46034 7.85C5.52684 7.69964 5.5907 7.55525 5.61464 7.45203C5.69095 7.12312 6.28231 5.90405 6.40344 5.79712C6.52458 5.69019 6.85507 5.57153 6.90229 5.67079C6.92922 5.7274 6.86724 5.80105 6.78804 5.89516C6.72839 5.96603 6.65898 6.04852 6.61042 6.14407C6.58549 6.19313 6.54785 6.26295 6.50396 6.34437C6.34882 6.63212 6.11556 7.0648 6.08916 7.23817C6.0553 7.46061 5.8488 8.23482 5.8488 8.23482Z" fill="white"/>
<path d="M5.5578 8.88318C5.55854 8.91038 5.55327 8.93742 5.54232 8.96258C5.64075 8.86493 5.73205 8.76108 5.81559 8.65172C6.01732 8.40357 6.07741 8.08594 6.08075 7.86938C6.08408 7.65281 6.29297 7.27743 6.29297 7.27743C6.95754 5.82683 7.30904 5.52282 7.43618 5.41287C7.45009 5.40084 7.46132 5.39113 7.46997 5.38249C7.55772 5.29496 8.03606 5.22864 8.16959 5.24127C8.25959 5.24979 8.22156 5.34193 8.16251 5.48495C8.13396 5.55412 8.10048 5.63521 8.07421 5.72448C7.99361 5.99835 7.84577 6.39809 7.77853 6.47524C7.71129 6.55239 7.43325 6.92461 7.41513 7.09381C7.39976 7.23732 7.29929 7.69472 7.21152 8.09432L7.21137 8.095C7.19572 8.16627 7.18047 8.23569 7.16618 8.30115C7.07175 8.73383 7.09894 9.33164 7.12564 9.36142C7.15235 9.3912 7.53721 10.3797 7.62306 10.687C7.7089 10.9942 8.3408 12.1506 8.52918 12.3478C8.71756 12.5449 8.71756 12.6532 8.52918 12.7741C8.3408 12.895 8.22682 12.8314 8.22682 12.8314C7.59999 12.1688 7.29381 11.0676 7.16079 10.5892C7.11113 10.4106 7.0856 10.3187 7.07652 10.3689C7.04314 10.5534 7.23676 11.3809 7.3455 11.7179C7.44754 12.0342 7.87547 12.7819 7.95459 12.9202L7.96548 12.9392C7.9979 12.9965 7.80714 13.2763 7.56869 13.1811C7.33024 13.0859 6.92725 12.036 6.85333 11.7242C6.77941 11.4125 6.55622 9.84102 6.6516 8.90573C6.70625 8.31923 6.83268 7.7407 7.02836 7.18179C7.05961 7.08835 7.17069 6.89856 7.279 6.71351C7.37728 6.5456 7.47327 6.38159 7.50526 6.29703C7.52571 6.24298 7.55545 6.16892 7.58695 6.09049C7.65906 5.91094 7.74038 5.70847 7.74038 5.67079C7.74038 5.61665 7.68219 5.61034 7.6264 5.63335C7.59388 5.64676 7.48506 5.83963 7.3799 6.026C7.30464 6.1594 7.23125 6.28947 7.18907 6.34801C7.10757 6.46113 6.83391 7.02872 6.68165 7.34451L6.68126 7.34533C6.64482 7.42088 6.61538 7.48195 6.59723 7.51881C6.50328 7.70966 6.32778 9.50986 6.42889 10.5661C6.52999 11.6223 7.05983 12.8887 7.15521 13.0475C7.21693 13.1411 7.24995 13.249 7.2506 13.3593C7.2506 13.404 6.88719 13.6138 6.79992 13.6011C6.71265 13.5885 6.66543 13.1044 6.65208 12.9456C6.63872 12.7868 6.2014 11.2216 6.12748 11.3615C6.05356 11.5013 6.27532 12.526 6.33589 12.7231C6.34863 12.7646 6.37565 12.8281 6.40795 12.9039C6.52919 13.1885 6.72472 13.6476 6.51759 13.773C6.25529 13.9318 6.19568 13.6999 6.19568 13.6999C5.85514 12.9731 5.72353 12.174 5.81416 11.3836C5.81416 11.2888 5.87425 10.6432 5.89428 10.4533C5.91431 10.2633 5.95437 9.62716 5.89428 9.62716C5.8513 9.62716 5.83394 9.68071 5.79926 9.78764C5.78547 9.83019 5.76889 9.88129 5.74691 9.94073C5.66965 10.1496 5.61338 11.1557 5.63341 11.3931C5.65344 11.6304 5.67347 12.4948 5.63341 12.6654C5.60469 12.7877 5.49359 13.037 5.40699 13.2314C5.37283 13.3081 5.34243 13.3763 5.32247 13.4247C5.26589 13.5618 5.26784 13.784 5.26912 13.9305C5.26944 13.9668 5.26972 13.9984 5.26905 14.023C5.26321 14.1214 5.23612 14.2177 5.18945 14.3058C5.14278 14.394 5.07752 14.4721 4.99769 14.5355C4.79978 14.6876 4.46594 14.7255 4.46594 14.6876C4.46594 14.6698 4.53691 14.5365 4.61839 14.3835C4.71032 14.2109 4.81562 14.0132 4.84747 13.9278C4.874 13.8567 4.94552 13.7354 5.01714 13.614C5.10773 13.4605 5.19847 13.3066 5.19847 13.2537C5.19847 13.159 5.24902 12.3996 5.27907 12.2476C5.30911 12.0956 5.31961 11.3267 5.26571 11.3173C5.21182 11.3078 5.00819 12.0103 4.95525 12.2476C4.90231 12.4849 4.80741 12.1524 4.77689 12.0198C4.74693 11.8499 4.75735 11.6759 4.80741 11.5104C4.83053 11.4491 4.84884 11.3286 4.86788 11.2032C4.89204 11.0442 4.91738 10.8773 4.95525 10.8138C4.97602 10.7789 5.01736 10.735 5.06583 10.6836C5.17538 10.5674 5.3214 10.4125 5.34917 10.2349C5.38923 9.97863 5.38923 9.36142 5.38923 9.36142C5.38923 9.36142 4.97719 9.76026 5.01772 10.0107C5.05826 10.2611 5.0058 10.4627 4.88753 10.6094C4.76926 10.756 4.64908 10.9658 4.64908 11.1273C4.64908 11.2888 4.56848 11.403 4.49837 11.3362C4.42827 11.2694 4.35816 10.8616 4.35816 10.6527C4.35816 10.4438 4.9996 8.98198 5.09784 8.83219C5.10906 8.81509 5.11906 8.79913 5.12829 8.78442C5.19984 8.67026 5.22495 8.63022 5.41165 8.70135C5.43915 8.70929 5.4646 8.72258 5.48637 8.74037C5.50813 8.75815 5.52572 8.78004 5.53803 8.80464C5.55033 8.82923 5.55707 8.85598 5.5578 8.88318Z" fill="white"/>
<path d="M5.71638 13.2185C5.69095 13.2145 5.66494 13.2153 5.63983 13.2208C5.61472 13.2264 5.59101 13.2365 5.57005 13.2507C5.5491 13.2649 5.53131 13.2829 5.51771 13.3036C5.50412 13.3243 5.49497 13.3474 5.4908 13.3715C5.46491 13.4939 5.46626 13.6725 5.46726 13.8061C5.46773 13.8693 5.46813 13.9225 5.46553 13.9548C5.46185 14.0005 5.43203 14.0801 5.40399 14.155C5.37027 14.245 5.33913 14.3281 5.35918 14.337C5.3959 14.3532 5.64532 14.2968 5.76741 14.1601C5.8895 14.0234 5.9968 13.838 5.99251 13.6571C5.98822 13.4761 5.92479 13.2185 5.71638 13.2185Z" fill="white"/>
<path d="M8.99103 5.26386C9.03872 5.30402 8.87466 5.49396 8.87466 5.49396C8.87466 5.49396 8.50458 6.24427 8.41492 6.39451C8.32527 6.54475 7.78064 7.60998 7.90225 8.04762C8.00828 8.42919 7.96567 8.82448 7.93184 9.1384C7.92687 9.18453 7.92208 9.2289 7.91799 9.27121C7.88604 9.60147 8.35102 10.6067 8.43972 10.747C8.52843 10.8873 9.20849 12.0428 9.20849 12.0428L9.48319 12.3433C9.48319 12.3433 9.12551 12.7286 8.76783 12.3433C8.41016 11.958 7.58845 10.142 7.45634 9.25632C7.32424 8.37066 7.44108 7.73541 7.48305 7.54591C7.50268 7.45731 7.61823 7.21727 7.74445 6.9551C7.88815 6.65661 8.04566 6.32943 8.0911 6.16441C8.17647 5.85445 8.5208 5.29906 8.6157 5.19393C8.7106 5.08881 8.94333 5.22371 8.99103 5.26386Z" fill="white"/>
<path d="M8.57376 7.77237C8.58328 7.6063 8.61534 7.44208 8.66914 7.28374C8.74973 7.07711 8.83605 6.73286 8.66914 6.65706C8.50222 6.58126 8.21846 6.63631 8.21846 7.21471C8.21846 7.3954 8.2045 7.58484 8.18966 7.78617C8.157 8.22931 8.12009 8.73012 8.21846 9.32171C8.36153 10.1821 9.05543 11.7197 9.96537 12.5142C10.5061 12.9864 10.6714 13.0806 10.8113 13.1603C10.9067 13.2147 10.9903 13.2623 11.1734 13.4188C11.6245 13.8046 13.9008 14.2111 14.5346 14.1349C15.1684 14.0586 15.3353 13.7771 15.3644 13.6738C15.3935 13.5704 15.3062 13.3981 15.219 13.4739L15.2186 13.4742C15.1303 13.5509 14.6564 13.9625 13.123 13.639C11.5873 13.3151 11.1719 12.9577 11.0847 12.8819C11.0412 12.8442 10.8043 12.6184 10.565 12.3903L10.5648 12.3901L10.564 12.3894L10.5638 12.3892C10.3231 12.1598 10.0802 11.9282 10.0293 11.8835C9.92769 11.7942 8.93239 10.5133 8.93239 10.3341C8.93239 10.2905 9.00881 10.395 9.14933 10.5871C9.58591 11.1841 10.6412 12.627 11.9455 13.1021C13.6695 13.7302 14.2966 13.6187 14.6314 13.5154L14.6822 13.4998C14.999 13.4023 15.2991 13.31 15.2991 13.2054C15.2991 13.0953 15.2919 12.8747 15.1751 12.8747C15.1333 12.8747 15.0256 12.9205 14.8902 12.9781C14.6467 13.0815 14.3136 13.2231 14.1125 13.2054C13.9808 13.1939 13.8259 13.1542 13.6597 13.1117C13.431 13.0532 13.181 12.9892 12.9408 12.9853C12.5259 12.9785 11.645 12.4966 11.4342 12.3035C11.403 12.2749 11.3509 12.2382 11.2811 12.189C10.8794 11.906 9.89241 11.2106 8.93763 9.28065C8.93763 9.28065 8.52511 8.1112 8.57376 7.77237Z" fill="white"/>
<path d="M11.0465 13.5447C11.1361 13.5294 11.593 13.8227 11.593 13.8227C11.593 13.8227 11.7652 14.0501 13.4377 14.2337C14.8223 14.3857 15.1329 14.1314 15.2453 14.0394C15.2687 14.0202 15.2835 14.0081 15.2976 14.0081C15.3796 14.0081 15.4111 14.2941 15.3692 14.3943C15.3272 14.4945 14.9066 14.6339 14.6538 14.6569C14.4986 14.671 14.374 14.6647 14.0951 14.6507C13.9197 14.6418 13.6833 14.6299 13.3399 14.6181C12.749 14.5896 12.1708 14.445 11.6421 14.1935C11.6027 14.1727 11.502 14.1811 11.3995 14.1897C11.3111 14.1971 11.2214 14.2046 11.1686 14.1935C11.0546 14.1696 10.9893 14.0085 10.9811 13.8538L10.9799 13.8316L10.979 13.8154C10.9711 13.6767 10.9643 13.5588 11.0465 13.5447Z" fill="white"/>
<path d="M11.8135 14.4638C11.8135 14.4638 11.4797 14.2319 11.3729 14.3248C11.266 14.4178 11.2508 14.6952 11.5932 14.7724C11.7494 14.8076 11.9942 14.8685 12.2305 14.9273C12.512 14.9974 12.7815 15.0645 12.8746 15.0815C13.0458 15.1126 13.5361 15.1897 13.9114 15.1897C14.1398 15.1897 14.3651 15.1296 14.5416 15.0825C14.6552 15.0522 14.7486 15.0273 14.8094 15.0273C14.9649 15.0273 15.4213 15.0273 15.4461 14.9371C15.4651 14.8681 15.4272 14.7421 15.4042 14.6659C15.3971 14.6424 15.3915 14.6236 15.3894 14.6127C15.3803 14.5662 15.2501 14.5815 15.16 14.628C15.0698 14.6745 14.5319 14.8365 14.2868 14.8536C14.0416 14.8708 13.3725 14.8861 12.785 14.7503C12.4549 14.6749 12.1304 14.5792 11.8135 14.4638Z" fill="white"/>
<path d="M12.467 15.5371C14.4094 15.8227 15.1114 15.367 15.1114 15.367C15.1114 15.367 15.3074 15.2975 15.193 15.1509C15.1033 15.036 14.8935 15.1203 14.6969 15.1993C14.6427 15.2211 14.5895 15.2425 14.5401 15.2592C14.3116 15.3363 13.7808 15.3575 13.3783 15.344C12.9758 15.3305 11.5122 14.8725 11.3977 14.8342C11.3219 14.8088 11.2247 14.7051 11.1535 14.6291C11.1172 14.5905 11.0876 14.5589 11.0711 14.5486C11.0219 14.5179 10.5245 15.2515 12.467 15.5371Z" fill="white"/>
<path d="M11.3056 15.3905C11.3056 15.3905 11.1282 15.2745 11.1282 15.3905C11.1282 15.5064 11.2236 15.6914 11.4143 15.7762C11.5653 15.8518 11.7333 15.8916 11.9041 15.8922C12.1118 15.9095 12.314 15.9645 12.4998 16.0542C12.6629 16.1318 13.2428 16.3479 14.2548 16.1701C15.2668 15.9924 15.5114 15.7686 15.5605 15.6991C15.6097 15.6296 15.5849 15.506 15.5605 15.4058C15.5362 15.3057 15.4652 15.2565 15.3698 15.3386C15.2744 15.4207 14.6864 15.9152 13.2499 15.8304C11.8135 15.7456 11.3056 15.3905 11.3056 15.3905Z" fill="white"/>
<path d="M11.8462 16.0465C12.1724 15.9694 12.295 16.1318 12.295 16.1318C12.295 16.1318 12.3522 16.3953 13.358 16.4801C14.1326 16.5454 14.9088 16.2129 15.2993 16.0456C15.4159 15.9956 15.4981 15.9604 15.5356 15.9549C15.6987 15.931 15.7716 16.0623 15.588 16.2708C15.4044 16.4792 14.8336 16.6335 14.556 16.6953C14.3687 16.737 13.9399 16.7682 13.592 16.7936C13.4243 16.8058 13.2754 16.8166 13.1816 16.8266C12.893 16.8573 12.8177 16.8266 12.7523 16.7725C12.7391 16.7614 12.6802 16.7281 12.5975 16.6812C12.274 16.4978 11.5864 16.108 11.8462 16.0465Z" fill="white"/>
<path d="M13.6915 16.9746C13.6915 16.9746 13.2031 16.9805 13.2217 17.0784C13.2403 17.1763 13.4716 17.3676 13.6915 17.327C13.729 17.32 13.7959 17.3087 13.8824 17.2941L13.8833 17.294L13.8846 17.2938L13.8864 17.2935L13.8873 17.2933C14.309 17.2222 15.1825 17.0748 15.3892 16.9746C15.4543 16.943 15.5165 16.9174 15.5728 16.8941L15.573 16.894C15.7333 16.8277 15.8466 16.7809 15.8466 16.6741C15.8466 16.5297 15.8022 16.3583 15.6964 16.3953C15.6802 16.4009 15.6419 16.4203 15.5855 16.4488C15.2716 16.6075 14.4003 17.048 13.6915 16.9746Z" fill="white"/>
<path d="M14.1394 17.6098C14.1394 17.5521 14.6745 17.3906 14.6745 17.3906C14.8034 17.3814 15.2902 17.143 15.5356 17.0229L15.5359 17.0227C15.6043 16.9892 15.654 16.9649 15.6717 16.9574C15.7081 16.9415 15.7477 16.9332 15.7878 16.9332C15.8279 16.9332 15.8675 16.9415 15.9039 16.9574C15.9464 16.9863 16.0012 17.211 15.9831 17.3324C15.9694 17.4244 15.6958 17.4866 15.4764 17.5365C15.4066 17.5524 15.3422 17.567 15.2935 17.581C15.2067 17.6058 15.0872 17.6628 14.9652 17.7211C14.8035 17.7982 14.6372 17.8775 14.5362 17.8873C14.3588 17.9044 14.1394 17.6676 14.1394 17.6098Z" fill="white"/>
<path d="M15.1887 18.1761C15.1302 18.2048 15.0652 18.2198 14.9993 18.2198C14.9334 18.2198 14.8685 18.2048 14.81 18.1761C14.6025 18.0777 14.6755 17.9699 14.8577 17.8882C14.9805 17.8332 15.165 17.7626 15.3116 17.7065C15.3824 17.6794 15.4444 17.6556 15.4862 17.6387C15.6145 17.5868 15.9393 17.4713 15.9846 17.5174C16.0299 17.5634 16.1029 17.6852 16.091 17.7253C16.079 17.7655 15.1887 18.1761 15.1887 18.1761Z" fill="white"/>
<path d="M15.157 18.4301C15.157 18.4765 15.4803 18.638 15.4803 18.638C15.6086 18.6611 16.3216 18.4878 16.3216 18.329C16.3216 18.1702 16.1508 18.0199 16.1508 18.0199C16.1508 18.0199 15.4865 18.2739 15.3878 18.2739C15.2891 18.2739 15.157 18.3836 15.157 18.4301Z" fill="white"/>
<path d="M16.3231 18.9846C16.3231 18.9846 16.1461 19.0193 16.0422 18.9846C15.9859 18.9658 15.9244 18.9183 15.873 18.8787C15.8294 18.8451 15.7932 18.8172 15.7737 18.8172C15.7312 18.8172 15.8724 18.7305 15.9849 18.7269C16.062 18.7245 16.1721 18.6921 16.2553 18.6677C16.2936 18.6564 16.3262 18.6468 16.3474 18.6426C16.4146 18.629 16.5 18.7157 16.5 18.823C16.5 18.9304 16.3231 18.9846 16.3231 18.9846Z" fill="white"/>
<path d="M9.90459 5.38474C9.90459 5.41948 9.71669 5.59363 9.71669 5.59363C9.52878 5.80027 9.28222 6.38409 9.26601 6.52982C9.24979 6.67555 9.31418 7.08116 9.37904 7.32615C9.40727 7.4328 9.46461 7.74132 9.52772 8.08091L9.52776 8.08114C9.60961 8.52156 9.70115 9.01416 9.7515 9.18635C9.80343 9.36396 9.95403 9.6594 10.0756 9.89782C10.1627 10.0688 10.2349 10.2105 10.2451 10.2583C10.2694 10.3729 11.249 11.3376 11.3863 11.3912C11.4401 11.4123 11.6003 11.5399 11.7983 11.6976C12.1063 11.943 12.5057 12.2611 12.7374 12.3635C13.118 12.5318 14.2754 12.7231 14.49 12.7385C14.7046 12.7538 14.5501 12.8851 14.5501 12.8851C13.7065 13.0331 12.6163 12.978 11.5723 12.2029C9.42768 10.6103 9.039 9.12499 8.86112 7.68574C8.68323 6.24648 9.24312 5.21825 9.40336 5.18532C9.5636 5.15238 9.90459 5.35 9.90459 5.38474Z" fill="white"/>
<path d="M10.4633 5.74658C10.4633 5.74658 10.6655 5.6956 10.6736 5.63334C10.6818 5.57108 10.6493 5.42399 10.3875 5.38248C10.1257 5.34098 9.8734 5.51784 9.69551 5.96134C9.51763 6.40485 9.60013 7.34691 9.82523 7.92847C9.91468 8.15957 9.9481 8.37264 9.98283 8.59404C10.0355 8.92981 10.0912 9.28475 10.3498 9.75077C10.41 9.85921 10.4614 9.95244 10.5058 10.0329C10.778 10.5265 10.7862 10.5412 10.9321 10.6464C11.0571 10.7364 11.5112 11.1544 11.7938 11.4145L11.7941 11.4147C11.8952 11.5078 11.9744 11.5808 12.0085 11.611C12.1377 11.7256 12.8259 12.1546 12.9623 12.1546C13.0987 12.1546 13.1569 11.948 13.1488 11.8483C13.1407 11.7486 13.1245 11.6953 12.938 11.6877C12.7515 11.68 12.4849 11.389 12.4849 11.389C12.4849 11.389 11.4896 10.5011 11.4086 10.4551C11.3275 10.409 10.5268 9.54414 10.5268 9.44443C10.5268 9.34472 10.543 9.19177 10.6078 9.27614C10.6149 9.28538 10.6269 9.30133 10.643 9.32276C10.7735 9.49691 11.1752 10.0328 11.4491 10.2714C11.7567 10.5394 12.7277 11.32 12.9623 11.412C13.197 11.504 13.3023 11.5117 13.3186 11.3353C13.3348 11.1589 13.4478 11.075 13.5451 11.1287C13.6424 11.1824 14.373 11.5798 14.6024 11.5573C14.7265 11.5451 14.883 11.4431 15.0171 11.3557C15.1309 11.2815 15.2286 11.2178 15.2767 11.2284C15.3817 11.2514 15.0826 11.5726 14.9853 11.6263C14.8881 11.68 15.0664 11.7946 15.0989 11.8099C15.1593 11.8418 15.2288 11.8545 15.2974 11.8464C15.366 11.8383 15.4301 11.8097 15.4804 11.7648C15.6587 11.6195 15.675 11.4283 15.5615 11.1603C15.4934 10.9995 15.4538 10.7817 15.4237 10.6164C15.4037 10.5063 15.3879 10.4193 15.3707 10.3883C15.3648 10.3777 15.3591 10.3661 15.3535 10.3546C15.3177 10.2819 15.2827 10.2107 15.2062 10.3883L15.1976 10.4082C15.1069 10.62 14.9373 11.0159 14.3806 11.0452C13.806 11.0754 13.175 11.0001 12.4787 10.5629C11.7825 10.1257 10.9412 9.5297 10.2778 7.75342C9.61444 5.97713 10.4633 5.74658 10.4633 5.74658Z" fill="white"/>
<path fill-rule="evenodd" clip-rule="evenodd" d="M15.0329 9.50282C15.0639 9.49625 15.0963 9.5 15.1246 9.51346C15.1651 9.54414 15.2081 9.76431 15.2081 9.84101C15.2081 9.91771 15.1837 10.6545 14.415 10.8133C13.7766 10.9452 13.2498 10.6776 12.9272 10.5138C12.8613 10.4804 12.8039 10.4512 12.7558 10.4307C12.4725 10.3098 11.8173 9.76657 11.4935 9.48323C11.1696 9.19989 10.8625 8.56463 10.7652 8.28897C10.7439 8.22856 10.715 8.15198 10.6818 8.06423C10.5636 7.75157 10.3918 7.29704 10.3203 6.92641C10.2514 6.56952 10.3395 6.39425 10.4081 6.25771C10.4308 6.21266 10.4513 6.17183 10.4633 6.13009C10.512 5.9618 10.9412 5.73215 11.1191 5.67124C11.297 5.61033 11.4343 5.86209 11.4262 5.92164C11.4181 5.9812 11.3823 6.20679 11.3823 6.20679C11.3396 6.48268 11.6011 6.96047 11.8303 7.37903L11.8554 7.42496C12.0901 7.85403 12.9156 8.83354 13.5627 9.17056C14.0828 9.44139 14.5668 8.92241 14.7787 8.69519C14.8305 8.63965 14.866 8.60154 14.8819 8.59667C14.9625 8.57185 15.0197 8.9161 14.9467 9.13808C14.8738 9.36006 14.9224 9.59738 14.9548 9.54955C14.9744 9.52592 15.002 9.5094 15.0329 9.50282ZM11.615 9.15709L11.6151 9.15729C11.6673 9.2319 11.7065 9.28797 11.7152 9.29915C11.7453 9.3384 12.2517 9.75845 12.2517 9.75845C12.2598 9.67408 12.0576 9.39074 11.8392 9.15342C11.6606 8.97418 11.4656 8.81022 11.2564 8.66344C11.2851 8.68517 11.4882 8.97575 11.615 9.15709ZM13.0986 9.86385C13.261 9.98159 13.5041 10.1578 14.0077 10.1744C14.6229 10.1956 14.7746 9.89515 14.7455 9.85004C14.7164 9.80492 14.6043 9.80402 14.4865 9.85004C14.479 9.85298 14.4702 9.85668 14.46 9.86091C14.3119 9.92294 13.889 10.1 13.268 9.69709C12.6046 9.26667 11.8516 8.4956 11.7586 8.3192C11.7412 8.28607 11.7039 8.22733 11.655 8.1503C11.4435 7.81707 11.0149 7.14176 11.0347 6.71887C11.0347 6.71887 10.9789 6.45087 10.987 6.38996C10.9951 6.32905 10.7848 6.42831 10.8172 6.55464C10.8496 6.68097 11.1711 7.75252 11.2865 7.96683C11.4019 8.18113 11.6933 8.48478 12.0495 8.83444C12.1901 8.97245 12.3422 9.13597 12.4849 9.28946C12.7038 9.52488 12.9008 9.73672 13.001 9.7968C13.0309 9.81474 13.0628 9.83787 13.0986 9.86385Z" fill="white"/>
<path fill-rule="evenodd" clip-rule="evenodd" d="M14.8008 8.08955C14.7643 8.08955 14.7095 8.12654 14.6539 8.16405C14.5643 8.22457 14.4726 8.28644 14.4526 8.19648C14.4369 8.12582 14.4713 8.01573 14.5112 7.88787C14.5536 7.75201 14.6023 7.59609 14.6038 7.44617C14.6067 7.15516 14.5418 6.61194 14.3963 6.33627C14.2509 6.06061 14.1131 5.83096 13.8622 5.97533C13.6325 6.10753 13.7215 6.21703 13.819 6.33709C13.828 6.34815 13.8371 6.3593 13.846 6.37056C13.8556 6.38274 13.8666 6.39634 13.8787 6.41128L13.8789 6.41147C13.9996 6.56046 14.2275 6.84161 14.2275 7.15471C14.2275 7.49941 14.1712 7.96683 14.0334 7.9966C13.8956 8.02638 13.5565 7.9199 13.2403 7.69792C12.9241 7.47595 12.4296 7.04733 12.3342 6.91739C12.2388 6.78745 12.0347 6.47298 12.0915 6.42109C12.1482 6.36921 12.2369 6.3444 12.318 6.48967C12.3991 6.63495 12.8278 7.06402 12.9408 7.16373C12.9543 7.17565 12.9711 7.19052 12.9904 7.20762L12.9909 7.20806C13.1329 7.33408 13.4099 7.57991 13.5236 7.65371C13.5379 7.66302 13.5527 7.6731 13.5678 7.68339C13.6884 7.76582 13.8293 7.86207 13.9442 7.69161C14.0735 7.49986 14.0821 7.06402 13.9848 6.89573C13.8875 6.72744 13.721 6.44456 13.671 6.37192C13.6209 6.29928 13.5236 6.17611 13.3371 6.25236C13.1507 6.3286 13.1673 6.46666 13.2236 6.52035C13.2371 6.5332 13.2649 6.55391 13.2999 6.57988C13.411 6.66251 13.5938 6.79836 13.6123 6.9034C13.6162 6.92541 13.6211 6.94992 13.6261 6.97512C13.6526 7.10804 13.683 7.26007 13.588 7.16373C13.5398 7.11486 13.4605 7.01963 13.3799 6.92269C13.2714 6.79232 13.1603 6.65884 13.1187 6.63089C13.0462 6.58217 12.5116 6.27536 12.5116 6.27536C12.5116 6.27536 11.8726 6.02271 11.832 5.9618C11.7915 5.90089 11.6594 5.8851 11.7538 6.24468C11.7674 6.29651 11.7806 6.34963 11.7939 6.40352C11.8732 6.72352 11.9592 7.07093 12.1878 7.33969C12.4069 7.59734 12.4462 7.72073 12.4847 7.84121C12.493 7.86755 12.5014 7.89383 12.5116 7.92126C12.5684 8.07421 13.1106 8.84797 13.8145 9.00859C14.4303 9.14911 14.6932 8.58067 14.7765 8.40056C14.7884 8.3748 14.7966 8.35699 14.8017 8.35033C14.8422 8.29709 14.898 8.08955 14.8008 8.08955ZM14.1293 8.55471C14.1134 8.65839 13.9767 8.62134 13.8485 8.58659C13.7798 8.56796 13.7135 8.54999 13.6695 8.55471C13.5436 8.56824 13.2956 8.35754 13.1421 8.18745C12.9885 8.01736 12.8669 7.84456 12.9155 7.82155C12.9398 7.81008 13.0002 7.86136 13.0786 7.92804C13.1577 7.99516 13.255 8.07788 13.3524 8.1279C13.3727 8.13835 13.3939 8.14939 13.4157 8.16075C13.6015 8.25774 13.8322 8.37814 13.9914 8.35754C14.1693 8.33453 14.1293 8.55471 14.1293 8.55471Z" fill="white"/>
<path d="M15.4904 12.0446C15.4904 11.9787 15.6335 11.8258 15.6335 11.8258C15.7534 11.8001 15.7605 11.9265 15.7656 12.0161C15.7663 12.0288 15.767 12.0407 15.7679 12.0514L15.7686 12.0583C15.7759 12.1409 15.7814 12.2016 15.6983 12.2499C15.613 12.2995 15.56 12.2702 15.5629 12.2048C15.5643 12.1717 15.5458 12.1479 15.527 12.124C15.5088 12.1007 15.4904 12.0771 15.4904 12.0446Z" fill="white"/>
<path d="M15.7709 12.3798C15.7709 12.3798 15.624 12.4673 15.6336 12.5693C15.638 12.6168 15.6346 12.6614 15.6314 12.7027C15.6278 12.75 15.6244 12.7931 15.6336 12.8319C15.6507 12.9045 15.7738 12.9122 15.8124 12.8319C15.8212 12.8137 15.8311 12.7971 15.8406 12.781C15.8734 12.7259 15.9021 12.6775 15.8663 12.5986C15.8488 12.5599 15.8441 12.5078 15.8401 12.4623C15.8334 12.3878 15.8284 12.3311 15.7709 12.3798Z" fill="white"/>
<path d="M15.6965 13.4373C15.6808 13.5177 15.883 13.3791 15.883 13.3791L15.8848 13.3781C15.9901 13.316 16.0584 13.2757 15.9588 13.0944C15.8885 12.9664 15.8673 12.986 15.837 13.0139C15.8241 13.0258 15.8096 13.0392 15.7891 13.0435C15.7373 13.0543 15.72 13.2248 15.708 13.3435C15.7039 13.3832 15.7005 13.4172 15.6965 13.4373Z" fill="white"/>
<path d="M16.0438 13.6196C16.0438 13.6196 16.0986 13.4247 15.9441 13.5443C15.8829 13.5916 15.8389 13.6144 15.8085 13.6301C15.7622 13.6541 15.7478 13.6615 15.7533 13.7144C15.7624 13.8019 15.7972 13.94 15.8811 13.9188C15.8926 13.9159 15.9052 13.9139 15.9183 13.9118C16.0013 13.8986 16.1035 13.8823 16.0438 13.6196Z" fill="white"/>
<path d="M15.9077 14.2761C15.8872 14.1376 16.1361 14.028 16.1361 14.028C16.1907 13.9983 16.1941 14.0684 16.1981 14.1524C16.2003 14.1977 16.2027 14.247 16.2134 14.2869C16.2439 14.4011 16.1595 14.5441 16.1051 14.5468C16.0508 14.5495 15.9282 14.4146 15.9077 14.2761Z" fill="white"/>
</g>
<defs>
<filter id="filter0_b_164_103" x="-18.5" y="-19" width="54" height="57" filterUnits="userSpaceOnUse" color-interpolation-filters="sRGB">
<feFlood flood-opacity="0" result="BackgroundImageFix"/>
<feGaussianBlur in="BackgroundImage" stdDeviation="9.5"/>
<feComposite in2="SourceAlpha" operator="in" result="effect1_backgroundBlur_164_103"/>
<feBlend mode="normal" in="SourceGraphic" in2="effect1_backgroundBlur_164_103" result="shape"/>
</filter>
</defs>
</svg>
