<svg width="19" height="19" viewBox="0 0 19 19" fill="none" xmlns="http://www.w3.org/2000/svg">
<path d="M18.207 3.16699V7.91699H13.457" stroke="white" stroke-width="1.5" stroke-linecap="round" stroke-linejoin="round"/>
<path d="M0.792969 15.833V11.083H5.54297" stroke="white" stroke-width="1.5" stroke-linecap="round" stroke-linejoin="round"/>
<path d="M2.78005 7.12508C3.18156 5.99045 3.86395 4.97602 4.76355 4.17645C5.66314 3.37688 6.75063 2.81823 7.92453 2.55262C9.09843 2.28701 10.3205 2.3231 11.4767 2.65753C12.6328 2.99195 13.6855 3.61381 14.5363 4.46508L18.2096 7.91675M0.792969 11.0834L4.4663 14.5351C5.31714 15.3863 6.36976 16.0082 7.52594 16.3426C8.68212 16.6771 9.90417 16.7132 11.0781 16.4475C12.252 16.1819 13.3395 15.6233 14.2391 14.8237C15.1387 14.0241 15.821 13.0097 16.2226 11.8751" stroke="white" stroke-width="1.5" stroke-linecap="round" stroke-linejoin="round"/>
</svg>
