<svg width="415" height="170" viewBox="0 0 415 170" fill="none" xmlns="http://www.w3.org/2000/svg">
<g opacity="0.3">
<path d="M-668.355 108.818C-605.446 108.768 -540.317 110.637 -477.783 107.02C-400.56 102.557 -325.73 90.2332 -248.781 84.6705C-186.186 80.1466 -131.852 84.9838 -73.2716 97.0876C-24.9391 107.075 22.5318 117.898 75.132 118.239C130.722 118.602 180.839 104.371 232.253 94.79C291.625 83.725 342.319 86.0776 399.694 99.5612C454.331 112.402 505.279 128.886 566.952 127.963C643.211 126.82 714.767 109.345 791.331 108.818" stroke="url(#paint0_linear_164_26)" stroke-miterlimit="10"/>
<path d="M-668.355 100.875C-607.059 100.809 -542.945 102.8 -482.105 98.5826C-401.579 93.0016 -324.044 78.7385 -243.894 71.9314C-180.033 66.5043 -128.782 72.7176 -71.4391 88.0145C-26.0878 100.111 19.4662 114.083 71.3354 114.82C129.641 115.639 183.781 97.1475 236.38 85.7821C263.932 79.8602 292.973 74.3122 323.008 75.5879C352.404 76.8415 380.239 83.5552 405.946 90.9837C457.764 105.923 508.245 126.487 569.906 124.915C645.829 122.974 714.992 102.239 791.331 100.892" stroke="url(#paint1_linear_164_26)" stroke-miterlimit="10"/>
<path d="M-668.355 93.9337C-608.548 93.8506 -545.476 95.9065 -486.296 91.1629C-402.697 84.4797 -322.737 68.2482 -239.614 60.2018C-174.292 53.8733 -126 61.4043 -70.2061 79.9965C-27.9047 94.0944 15.7449 111.323 67.1492 112.493C127.971 113.872 186.765 90.8525 240.369 77.8242C268.448 70.9969 299.417 63.7983 330.78 65.3832C360.177 66.8684 387.719 74.9813 412.301 83.3935C461.313 100.174 511.278 125.083 573.093 122.861C648.694 120.134 715.193 96.0617 791.331 93.9337" stroke="url(#paint2_linear_164_26)" stroke-miterlimit="10"/>
<path d="M-668.355 86.8559C-609.978 86.7568 -547.84 88.7991 -490.172 83.7402C-403.848 76.1601 -321.741 58.3356 -236.045 49.2748C-203.415 45.8288 -172.488 43.8361 -140.527 49.8803C-114.486 54.8071 -91.5766 63.4551 -69.4786 72.1967C-29.9454 87.8247 11.7875 107.868 63.0691 109.436C126.119 111.369 189.636 84.3567 244.111 70.0938C272.676 62.6129 305.549 53.9483 338.109 55.7814C367.637 57.4329 394.813 66.7194 418.34 75.8904C464.746 93.9681 514.112 122.582 576.26 119.813C651.586 116.45 715.326 89.5753 791.331 86.8284" stroke="url(#paint3_linear_164_26)" stroke-miterlimit="10"/>
<path d="M-668.355 80.3419C-611.205 80.2377 -549.908 82.2626 -493.568 76.9891C-405.054 68.703 -321.386 49.409 -233.531 39.526C-200.79 35.8439 -169.954 33.5611 -138.155 40.3985C-112.357 45.9793 -90.3703 55.555 -69.3468 65.1251C-32.1349 82.0431 7.85442 104.531 59.3895 106.424C92.3236 107.637 125.44 98.3354 153.884 90.4609C185.439 81.7248 215.779 71.7705 247.324 63.0234C276.315 54.9897 310.78 45.1342 344.434 47.192C374.175 49.0084 400.926 59.2096 423.612 69.0322C467.889 88.2384 516.322 119.989 579.068 116.773C654.262 112.932 715.336 83.4753 791.331 80.32" stroke="url(#paint4_linear_164_26)" stroke-miterlimit="10"/>
<path d="M-668.355 73.3368C-612.228 73.2318 -551.581 75.2769 -496.325 69.8657C-406.251 61.0496 -321.609 40.289 -232.284 29.7153C-199.695 25.8462 -168.626 23.3755 -137.151 30.7544C-111.384 36.7958 -90.0561 47.27 -69.7928 57.5729C-34.1318 75.697 4.34709 100.227 56.5106 102.344C90.347 103.704 124.427 93.5557 153.316 85.1652C185.926 75.6859 217.178 64.8966 249.787 55.4062C279.184 46.8444 314.662 36.138 349.218 38.3213C379.274 40.2227 405.568 51.1391 427.636 61.6023C470.545 81.9373 517.498 116.212 581.248 112.758C656.442 108.684 715.184 76.6311 791.331 73.3589" stroke="url(#paint5_linear_164_26)" stroke-miterlimit="10"/>
<path d="M-668.355 66.2741C-613.021 66.1866 -552.749 68.2491 -498.307 62.9368C-407.474 54.0739 -322.602 32.4473 -232.59 21.6969C-200.448 17.8673 -168.802 15.3725 -137.774 22.7255C-111.795 28.8803 -90.7615 39.8057 -70.8738 50.4357C-35.7815 69.2229 1.56113 94.4767 54.8179 96.5119C89.4034 97.8359 123.573 87.6873 152.868 79.0049C186.166 69.1573 217.994 57.9309 251.282 48.0723C281.053 39.2532 316.682 28.4864 351.947 30.631C382.356 32.4801 408.204 43.4822 429.998 54.2818C472.571 75.3722 517.282 110.156 582.52 106.77C657.905 102.858 714.872 69.1791 791.331 66.285" stroke="url(#paint6_linear_164_26)" stroke-miterlimit="10"/>
<path d="M-668.355 59.7029C-613.222 59.5155 -553.142 61.8527 -498.93 56.3956C-408.714 47.2949 -324.924 24.8546 -235.619 13.7696C-203.567 9.79524 -171.94 7.41396 -140.932 14.7342C-114.577 20.9685 -93.1275 32.1087 -72.9453 42.9512C-37.2033 62.1558 0.535757 87.9255 54.4935 90.3288C89.3232 91.8777 123.291 81.7793 152.718 72.8936C186.068 62.8173 217.836 51.2857 251.176 41.2039C281.089 32.1528 316.538 21.4536 352.067 23.7687C382.68 25.7641 408.376 36.8713 430.211 47.8737C472.957 69.4209 516.819 104.005 582.576 100.791C658.175 97.1088 714.556 62.2495 791.331 59.7029" stroke="url(#paint7_linear_164_26)" stroke-miterlimit="10"/>
<path d="M-668.355 53.7502C-612.988 53.4097 -553.089 56.3477 -498.684 50.5322C-410.067 41.0592 -328.16 18.335 -240.486 6.90149C-208.048 2.66747 -177.252 0.465344 -145.797 7.8076C-118.965 14.0625 -96.7547 25.0457 -75.832 35.7543C-38.9032 54.6783 0.42798 80.6096 54.3868 83.8771C89.0044 85.9749 123.095 75.8868 152.269 67.0399C185.214 57.0507 216.507 45.5513 249.442 35.5511C279.295 26.4845 314.744 15.9077 350.223 18.648C380.745 21.0039 406.817 32.2287 428.956 43.0691C471.927 64.1019 517.056 97.9081 582.024 94.7998C657.807 91.1699 714.371 56.2434 791.331 53.7502" stroke="url(#paint8_linear_164_26)" stroke-miterlimit="10"/>
<path d="M-668.355 47.4226C-612.674 47.0152 -552.937 50.7803 -498.198 44.6098C-411.386 34.8227 -331.619 11.7477 -245.791 0.0230221C-213.079 -4.45767 -183.003 -6.45582 -151.194 0.810166C-123.946 7.03579 -100.844 17.7586 -79.1408 28.4099C-40.9755 47.1253 0.16993 73.0242 54.0777 77.092C88.3808 79.6846 122.207 69.782 151.118 60.9527C183.505 51.0446 214.139 39.5896 246.506 29.6869C276.267 20.5824 311.381 10.2835 346.698 13.4211C377.251 16.1403 403.789 27.4411 426.425 38.1915C469.962 58.8335 516.572 91.8717 581.042 88.8002C657.16 85.1782 714.037 49.9436 791.331 47.4556" stroke="url(#paint9_linear_164_26)" stroke-miterlimit="10"/>
<path d="M-668.355 41.2726C-612.29 40.8829 -552.587 45.6309 -497.464 39.1648C-412.642 29.2242 -335.199 5.97829 -251.391 -5.9164C-218.548 -10.5766 -189.041 -12.3276 -156.969 -5.29065C-129.236 0.791171 -105.273 11.1764 -82.7292 21.6055C-42.9739 39.9333 -0.390441 65.3858 53.6675 70.1887C87.564 73.1967 120.791 63.7501 149.417 55.0061C181.093 45.3235 210.945 33.9997 242.602 24.3061C272.251 15.2218 306.685 5.46232 341.787 8.93686C372.481 11.9833 399.565 23.2083 422.879 33.7801C467.287 53.9083 515.557 85.8434 579.681 82.797C656.262 79.1578 713.574 43.7866 791.331 41.2891" stroke="url(#paint10_linear_164_26)" stroke-miterlimit="10"/>
<path d="M-668.355 34.8469C-611.833 34.5389 -552.148 40.4408 -496.528 33.6808C-413.833 23.6316 -338.852 0.128439 -257.2 -11.8569C-224.378 -16.6863 -195.275 -18.1879 -163.04 -11.4444C-134.81 -5.53696 -110.005 4.50675 -86.5386 14.6385C-44.9781 32.5862 -1.09625 57.481 53.1656 62.9869C118.649 69.6369 184.821 35.0284 237.887 18.7143C267.425 9.62762 300.927 0.524467 335.726 4.33624C366.664 7.72998 394.317 18.8683 418.432 29.3025C463.966 48.9994 514.041 79.8566 578.004 76.7874C655.154 73.0911 713.015 37.3881 791.331 34.8469" stroke="url(#paint11_linear_164_26)" stroke-miterlimit="10"/>
<path d="M-668.355 28.6417C-611.336 28.4719 -551.641 35.6083 -495.443 28.6417C-414.968 18.6299 -342.572 -4.88248 -263.191 -16.855C-230.48 -21.7842 -201.661 -23.011 -169.335 -16.6852C-140.588 -11.0495 -114.921 -1.49228 -90.5325 8.27852C-47.1677 25.6403 -1.97818 49.6018 52.5573 55.7633C117.047 63.0366 180.371 29.5727 232.454 13.5911C261.252 4.76782 294.825 -4.12667 328.671 0.419158C360.095 4.63637 387.778 14.8618 413.262 25.2679C460.104 44.3823 512.105 73.8645 576.068 70.7755C653.877 67.0238 712.356 31.2048 791.331 28.6033" stroke="url(#paint12_linear_164_26)" stroke-miterlimit="10"/>
<path d="M-668.355 22.9458C-610.8 22.9458 -551.044 31.4938 -494.218 24.2338C-416.034 14.2437 -346.294 -9.48477 -269.256 -21.4508C-135.452 -42.2511 -65.6512 34.5376 51.8832 49.2337C115.237 57.1652 175.358 24.7457 226.497 9.00924C255.163 0.20257 287.438 -7.817 320.859 -2.98984C352.678 1.60614 381.01 11.6567 407.517 21.9165C455.818 40.6307 509.836 68.9111 573.93 65.7572C652.459 61.9043 711.626 25.6263 791.331 22.9458" stroke="url(#paint13_linear_164_26)" stroke-miterlimit="10"/>
<path d="M-668.355 17.4746C-610.243 17.7057 -550.386 27.6529 -492.881 20.1815C-417.029 10.3278 -349.956 -13.4453 -275.32 -25.3016C-144.285 -46.1093 -64.4795 26.9652 51.1585 42.7057C113.417 51.1894 169.929 20.22 220.135 4.79305C248.68 -3.97676 279.546 -10.9365 312.489 -5.89138C344.734 -0.939787 373.785 8.85335 401.357 18.8941C451.208 37.0499 507.284 63.959 571.651 60.735C650.95 56.7682 710.857 20.242 791.331 17.4746" stroke="url(#paint14_linear_164_26)" stroke-miterlimit="10"/>
<path d="M-668.355 11.8969C-609.662 12.3655 -549.682 23.7871 -491.455 16.1139C-417.921 6.42313 -353.592 -17.4234 -281.264 -29.1428C-153.001 -49.9299 -63.3189 19.2835 50.4486 36.1073C111.595 45.1476 164.267 15.6454 213.593 0.49182C242.038 -8.24531 271.374 -14.0995 303.813 -8.87923C336.504 -3.59285 366.307 6.0042 394.975 15.8162C446.43 33.4559 504.576 59.0113 569.27 55.7093C649.352 51.6136 710.053 14.7413 791.331 11.8749" stroke="url(#paint15_linear_164_26)" stroke-miterlimit="10"/>
<path d="M-668.355 6.22129C-609.096 6.93442 -548.945 19.8536 -489.949 11.9982C-418.688 2.50086 -357.017 -21.4248 -287.023 -32.9786C-161.489 -53.7036 -62.2207 11.5394 49.6785 29.4228C109.718 39.0197 158.435 11.0086 206.919 -3.89518C235.241 -12.602 263.147 -17.3175 295.048 -11.8944C328.195 -6.25568 358.777 3.12554 388.518 12.7224C441.584 29.8595 501.776 54.0727 566.874 50.6785C647.795 46.455 709.244 9.21753 791.331 6.22129" stroke="url(#paint16_linear_164_26)" stroke-miterlimit="10"/>
<path d="M-668.355 1.04326C-608.551 1.98674 -548.198 16.2268 -488.525 8.30042C-419.455 -0.876617 -360.39 -24.6119 -292.628 -35.8514C-169.582 -56.257 -61.1123 4.26866 48.9693 23.0067C107.913 33.045 152.665 6.81388 200.357 -7.7114C228.556 -16.296 255.094 -19.8286 286.385 -14.2939C319.987 -8.35868 351.339 0.736083 382.144 9.9954C436.769 26.4186 498.966 49.0897 564.508 45.6504C646.238 41.3443 708.445 4.09313 791.331 1.05423" stroke="url(#paint17_linear_164_26)" stroke-miterlimit="10"/>
<path d="M-668.355 -4.63646C-607.95 -3.4634 -547.453 12.2049 -487.048 4.13668C-420.053 -4.8127 -363.479 -28.6263 -297.823 -39.6685C-177.134 -59.9684 -59.9821 -3.41935 48.2592 16.3905C106.222 26.9975 146.972 2.12101 194.007 -12.1705C222.116 -20.7068 247.266 -23.1851 278.031 -17.4685C312.071 -11.1681 344.184 -2.21875 375.994 6.80773C432.121 22.7294 496.237 44.1528 562.238 40.6116C644.742 36.1782 707.682 -1.49178 791.331 -4.63646" stroke="url(#paint18_linear_164_26)" stroke-miterlimit="10"/>
<path d="M-668.355 -9.42023C-607.383 -8.07469 -546.715 8.6307 -485.631 0.60083C-420.553 -7.9499 -366.322 -31.4101 -302.633 -42.0334C-240.85 -52.3421 -175.123 -40.7042 -117.415 -28.2687C-61.7645 -16.2728 -8.86101 -0.538544 47.6208 10.3398C104.853 21.3646 141.355 -1.98718 188.034 -15.7031C250.02 -33.9059 313.507 -10.82 370.242 4.14916C427.727 19.2974 493.646 39.1442 560.082 35.5796C643.315 31.1198 706.943 -6.25169 791.331 -9.42566" stroke="url(#paint19_linear_164_26)" stroke-miterlimit="10"/>
<path d="M-668.355 -14.5617C-606.814 -13.0359 -546.134 5.09769 -484.268 -3.1153C-420.922 -11.5321 -368.848 -35.3338 -306.87 -45.8823C-245.653 -56.3152 -178.191 -44.9844 -120.208 -33.4224C-63.4304 -22.0972 -9.39016 -7.14192 47.083 4.62397C103.556 16.3899 136.542 -6.15592 182.625 -19.8828C243.203 -37.9227 309.337 -12.7219 365.091 1.40708C423.784 16.2797 491.377 35.2065 558.18 31.5379C642.064 26.9274 706.322 -11.2677 791.331 -14.5617" stroke="url(#paint20_linear_164_26)" stroke-miterlimit="10"/>
<path d="M-668.355 -19.4197C-606.236 -17.7853 -545.607 1.15128 -483.022 -7.02045C-421.187 -15.0887 -371.029 -38.6178 -310.694 -48.8488C-249.944 -59.1179 -180.942 -48.3694 -122.695 -37.8823C-64.9146 -27.4715 -9.79004 -13.5687 46.5915 -1.21852C73.1908 4.6052 92.6841 4.8449 118.402 -2.66764C139.304 -8.77464 156.983 -17.6437 177.855 -23.7943C205.701 -32.0096 227.88 -31.7808 257.044 -25.6738C292.088 -18.3247 326.229 -9.8751 360.613 -1.66524C420.289 12.5427 489.352 30.1718 556.458 26.5109C640.919 21.902 705.714 -16.1237 791.331 -19.4197" stroke="url(#paint21_linear_164_26)" stroke-miterlimit="10"/>
<path d="M-668.355 -24.2787C-605.658 -22.6267 -545.211 -2.57154 -481.896 -10.859C-421.287 -18.7941 -372.842 -42.6654 -313.723 -52.7426C-253.286 -63.0455 -183.017 -52.6325 -124.536 -42.8306C-66.0559 -33.0288 -9.9071 -19.7027 46.2924 -6.48676C72.2634 -0.379889 91.25 0.484656 116.744 -7.07046C136.958 -13.0617 153.826 -21.9054 173.988 -27.9407C201.682 -36.2337 223.517 -35.3526 252.175 -28.9759C287.391 -21.1399 322.059 -12.6157 357.093 -4.54842C417.519 9.36137 487.931 26.1897 555.139 22.4782C640.067 17.7921 705.298 -20.8756 791.331 -24.2292" stroke="url(#paint22_linear_164_26)" stroke-miterlimit="10"/>
<path d="M-668.355 -28.2928C-605.074 -26.6901 -544.975 -6.00946 -480.953 -14.2916C-421.25 -22.0249 -374.318 -45.9987 -316.023 -55.7462C-255.671 -65.8506 -184.645 -55.9438 -125.803 -46.8713C-66.4846 -37.733 -9.85238 -25.0052 46.1109 -11.1083C71.5533 -4.7965 90.326 -3.46829 115.627 -10.9985C135.291 -16.8438 151.479 -25.6034 171.083 -31.5035C198.644 -39.7967 220.457 -38.452 248.677 -31.8548C283.942 -23.6221 319.014 -15.1039 354.583 -7.2334C415.401 6.22989 486.985 22.1356 554.138 18.4637C639.396 13.7985 704.938 -24.9612 791.331 -28.2928" stroke="url(#paint23_linear_164_26)" stroke-miterlimit="10"/>
<path d="M-668.355 -33.018C-604.494 -31.5757 -544.911 -10.5723 -480.178 -18.8071C-421.091 -26.3235 -375.171 -50.2006 -317.575 -59.7525C-257.413 -69.7235 -185.453 -60.1117 -126.457 -51.6756C-66.5287 -43.1033 -9.64151 -30.8246 46.0597 -16.298C71.0873 -9.76678 89.9618 -8.1884 115.131 -15.7048C134.391 -21.4577 150.072 -30.1497 169.302 -35.957C196.762 -44.2517 218.881 -42.6842 246.767 -35.8427C281.961 -27.2106 317.298 -18.7037 353.263 -11.0295C414.266 1.98401 486.682 17.0494 553.564 13.4627C639.027 8.88535 704.733 -29.7578 791.331 -33.018" stroke="url(#paint24_linear_164_26)" stroke-miterlimit="10"/>
<path d="M-668.355 -37.7126C-604.17 -36.3982 -545.002 -14.8551 -479.873 -23.2879C-420.989 -30.9089 -375.344 -55.1138 -317.929 -64.7505C-257.829 -74.8345 -185.544 -64.8831 -126.528 -56.5055C-66.3869 -47.9678 -9.68209 -35.603 46.0901 -20.7973C71.0264 -14.1703 90.1645 -12.7897 115.162 -20.3665C134.29 -26.1651 149.87 -34.9072 168.998 -40.7223C196.367 -49.0391 218.891 -47.4928 246.513 -40.3523C281.556 -31.2955 316.933 -22.5976 353.05 -14.8883C413.759 -1.92705 487.118 13.1879 553.483 9.41055C638.824 4.56184 704.956 -33.9849 791.331 -37.696" stroke="url(#paint25_linear_164_26)" stroke-miterlimit="10"/>
<path d="M-668.355 -42.2352C-603.988 -40.9956 -544.956 -19.4553 -479.635 -27.9299C-420.805 -35.5653 -374.898 -59.4038 -317.407 -68.9151C-257.269 -78.8652 -185.102 -68.5476 -126.14 -60.1717C-66.1546 -51.6478 -9.65807 -39.3884 46.5342 -25.3793C99.7242 -12.1217 126.086 -32.51 169.894 -45.2247C197.28 -53.1727 219.96 -51.7246 247.346 -44.6048C282.258 -35.5269 317.596 -26.9097 353.726 -19.3402C414.117 -6.69137 488.475 8.39284 554.405 4.32285C639.434 -0.931938 706.418 -37.6606 792.269 -42.153" stroke="url(#paint26_linear_164_26)" stroke-miterlimit="10"/>
<path d="M-668.355 -45.8134C-603.794 -44.6219 -544.902 -23.0003 -479.377 -31.5156C-420.546 -39.1673 -374.456 -62.669 -316.933 -72.0588C-256.794 -81.8967 -184.838 -71.2225 -125.967 -62.8494C-66.2131 -54.3505 -9.92832 -42.1897 46.5897 -28.9359C99.3345 -16.562 126.64 -36.5165 170.479 -48.6117C197.866 -56.1869 220.749 -54.7877 247.892 -47.6826C282.643 -38.588 317.88 -30.0673 354 -22.656C414.15 -10.3094 489.25 4.56222 554.633 0.233538C639.238 -5.36314 707.046 -40.3697 792.269 -45.5565" stroke="url(#paint27_linear_164_26)" stroke-miterlimit="10"/>
<path d="M-667.418 -50.4219C-602.676 -49.2622 -543.915 -27.4455 -478.19 -36.0069C-419.469 -43.6548 -373.135 -66.9103 -315.61 -76.2102C-255.511 -85.8932 -183.836 -74.9411 -125.115 -66.5547C-65.685 -58.0753 -9.55917 -45.9962 47.1241 -33.4631C99.4589 -21.9038 127.679 -41.4338 171.6 -52.9767C199.04 -60.1814 222.08 -58.781 249.003 -51.6747C283.538 -42.5552 318.681 -34.1251 354.716 -26.882C414.674 -14.8194 490.18 -0.300465 555.074 -4.85746C639.207 -10.7602 707.75 -44.1526 792.268 -49.9843" stroke="url(#paint28_linear_164_26)" stroke-miterlimit="10"/>
</g>
<defs>
<linearGradient id="paint0_linear_164_26" x1="61.4877" y1="83" x2="61.4877" y2="128" gradientUnits="userSpaceOnUse">
<stop stop-color="#32344B"/>
<stop offset="0.307292" stop-color="#282941"/>
<stop offset="1" stop-color="#434566"/>
</linearGradient>
<linearGradient id="paint1_linear_164_26" x1="61.4877" y1="70" x2="61.4877" y2="125" gradientUnits="userSpaceOnUse">
<stop stop-color="#32344B"/>
<stop offset="0.307292" stop-color="#282941"/>
<stop offset="1" stop-color="#434566"/>
</linearGradient>
<linearGradient id="paint2_linear_164_26" x1="61.4877" y1="58" x2="61.4877" y2="123" gradientUnits="userSpaceOnUse">
<stop stop-color="#32344B"/>
<stop offset="0.307292" stop-color="#282941"/>
<stop offset="1" stop-color="#434566"/>
</linearGradient>
<linearGradient id="paint3_linear_164_26" x1="61.4877" y1="46" x2="61.4877" y2="120" gradientUnits="userSpaceOnUse">
<stop stop-color="#32344B"/>
<stop offset="0.307292" stop-color="#282941"/>
<stop offset="1" stop-color="#434566"/>
</linearGradient>
<linearGradient id="paint4_linear_164_26" x1="61.4877" y1="36" x2="61.4877" y2="117" gradientUnits="userSpaceOnUse">
<stop stop-color="#32344B"/>
<stop offset="0.307292" stop-color="#282941"/>
<stop offset="1" stop-color="#434566"/>
</linearGradient>
<linearGradient id="paint5_linear_164_26" x1="61.4877" y1="26" x2="61.4877" y2="113" gradientUnits="userSpaceOnUse">
<stop stop-color="#32344B"/>
<stop offset="0.307292" stop-color="#282941"/>
<stop offset="1" stop-color="#434566"/>
</linearGradient>
<linearGradient id="paint6_linear_164_26" x1="61.4877" y1="18" x2="61.4877" y2="107" gradientUnits="userSpaceOnUse">
<stop stop-color="#32344B"/>
<stop offset="0.307292" stop-color="#282941"/>
<stop offset="1" stop-color="#434566"/>
</linearGradient>
<linearGradient id="paint7_linear_164_26" x1="61.4877" y1="10" x2="61.4877" y2="101" gradientUnits="userSpaceOnUse">
<stop stop-color="#32344B"/>
<stop offset="0.307292" stop-color="#282941"/>
<stop offset="1" stop-color="#434566"/>
</linearGradient>
<linearGradient id="paint8_linear_164_26" x1="61.4877" y1="3" x2="61.4877" y2="95" gradientUnits="userSpaceOnUse">
<stop stop-color="#32344B"/>
<stop offset="0.307292" stop-color="#282941"/>
<stop offset="1" stop-color="#434566"/>
</linearGradient>
<linearGradient id="paint9_linear_164_26" x1="61.4877" y1="-4" x2="61.4877" y2="89" gradientUnits="userSpaceOnUse">
<stop stop-color="#32344B"/>
<stop offset="0.307292" stop-color="#282941"/>
<stop offset="1" stop-color="#434566"/>
</linearGradient>
<linearGradient id="paint10_linear_164_26" x1="61.4877" y1="-10" x2="61.4877" y2="83" gradientUnits="userSpaceOnUse">
<stop stop-color="#32344B"/>
<stop offset="0.307292" stop-color="#282941"/>
<stop offset="1" stop-color="#434566"/>
</linearGradient>
<linearGradient id="paint11_linear_164_26" x1="61.4877" y1="-16" x2="61.4877" y2="77" gradientUnits="userSpaceOnUse">
<stop stop-color="#32344B"/>
<stop offset="0.307292" stop-color="#282941"/>
<stop offset="1" stop-color="#434566"/>
</linearGradient>
<linearGradient id="paint12_linear_164_26" x1="61.4877" y1="-21" x2="61.4877" y2="71" gradientUnits="userSpaceOnUse">
<stop stop-color="#32344B"/>
<stop offset="0.307292" stop-color="#282941"/>
<stop offset="1" stop-color="#434566"/>
</linearGradient>
<linearGradient id="paint13_linear_164_26" x1="61.4877" y1="-25" x2="61.4877" y2="66" gradientUnits="userSpaceOnUse">
<stop stop-color="#32344B"/>
<stop offset="0.307292" stop-color="#282941"/>
<stop offset="1" stop-color="#434566"/>
</linearGradient>
<linearGradient id="paint14_linear_164_26" x1="61.4877" y1="-29" x2="61.4877" y2="61" gradientUnits="userSpaceOnUse">
<stop stop-color="#32344B"/>
<stop offset="0.307292" stop-color="#282941"/>
<stop offset="1" stop-color="#434566"/>
</linearGradient>
<linearGradient id="paint15_linear_164_26" x1="61.4877" y1="-33" x2="61.4877" y2="56" gradientUnits="userSpaceOnUse">
<stop stop-color="#32344B"/>
<stop offset="0.307292" stop-color="#282941"/>
<stop offset="1" stop-color="#434566"/>
</linearGradient>
<linearGradient id="paint16_linear_164_26" x1="61.4877" y1="-37" x2="61.4877" y2="51" gradientUnits="userSpaceOnUse">
<stop stop-color="#32344B"/>
<stop offset="0.307292" stop-color="#282941"/>
<stop offset="1" stop-color="#434566"/>
</linearGradient>
<linearGradient id="paint17_linear_164_26" x1="61.4877" y1="-40" x2="61.4877" y2="46" gradientUnits="userSpaceOnUse">
<stop stop-color="#32344B"/>
<stop offset="0.307292" stop-color="#282941"/>
<stop offset="1" stop-color="#434566"/>
</linearGradient>
<linearGradient id="paint18_linear_164_26" x1="61.4877" y1="-44" x2="61.4877" y2="41" gradientUnits="userSpaceOnUse">
<stop stop-color="#32344B"/>
<stop offset="0.307292" stop-color="#282941"/>
<stop offset="1" stop-color="#434566"/>
</linearGradient>
<linearGradient id="paint19_linear_164_26" x1="61.4877" y1="-46" x2="61.4877" y2="36" gradientUnits="userSpaceOnUse">
<stop stop-color="#32344B"/>
<stop offset="0.307292" stop-color="#282941"/>
<stop offset="1" stop-color="#434566"/>
</linearGradient>
<linearGradient id="paint20_linear_164_26" x1="61.4877" y1="-50" x2="61.4877" y2="32" gradientUnits="userSpaceOnUse">
<stop stop-color="#32344B"/>
<stop offset="0.307292" stop-color="#282941"/>
<stop offset="1" stop-color="#434566"/>
</linearGradient>
<linearGradient id="paint21_linear_164_26" x1="61.4877" y1="-53" x2="61.4877" y2="27" gradientUnits="userSpaceOnUse">
<stop stop-color="#32344B"/>
<stop offset="0.307292" stop-color="#282941"/>
<stop offset="1" stop-color="#434566"/>
</linearGradient>
<linearGradient id="paint22_linear_164_26" x1="61.4877" y1="-57" x2="61.4877" y2="23" gradientUnits="userSpaceOnUse">
<stop stop-color="#32344B"/>
<stop offset="0.307292" stop-color="#282941"/>
<stop offset="1" stop-color="#434566"/>
</linearGradient>
<linearGradient id="paint23_linear_164_26" x1="61.4877" y1="-60" x2="61.4877" y2="19" gradientUnits="userSpaceOnUse">
<stop stop-color="#32344B"/>
<stop offset="0.307292" stop-color="#282941"/>
<stop offset="1" stop-color="#434566"/>
</linearGradient>
<linearGradient id="paint24_linear_164_26" x1="61.4877" y1="-64" x2="61.4877" y2="14" gradientUnits="userSpaceOnUse">
<stop stop-color="#32344B"/>
<stop offset="0.307292" stop-color="#282941"/>
<stop offset="1" stop-color="#434566"/>
</linearGradient>
<linearGradient id="paint25_linear_164_26" x1="61.4877" y1="-69" x2="61.4877" y2="10" gradientUnits="userSpaceOnUse">
<stop stop-color="#32344B"/>
<stop offset="0.307292" stop-color="#282941"/>
<stop offset="1" stop-color="#434566"/>
</linearGradient>
<linearGradient id="paint26_linear_164_26" x1="61.9567" y1="-73" x2="61.9567" y2="5" gradientUnits="userSpaceOnUse">
<stop stop-color="#32344B"/>
<stop offset="0.307292" stop-color="#282941"/>
<stop offset="1" stop-color="#434566"/>
</linearGradient>
<linearGradient id="paint27_linear_164_26" x1="61.9567" y1="-76" x2="61.9567" y2="1" gradientUnits="userSpaceOnUse">
<stop stop-color="#32344B"/>
<stop offset="0.307292" stop-color="#282941"/>
<stop offset="1" stop-color="#434566"/>
</linearGradient>
<linearGradient id="paint28_linear_164_26" x1="62.4252" y1="-80" x2="62.4252" y2="-4" gradientUnits="userSpaceOnUse">
<stop stop-color="#32344B"/>
<stop offset="0.307292" stop-color="#282941"/>
<stop offset="1" stop-color="#434566"/>
</linearGradient>
</defs>
</svg>
